{"glyphs":{"0":{"ha":925,"x_min":6,"x_max":924,"o":"m 610 1042 q 764 1001 696 1042 q 869 888 832 960 q 914 722 906 817 q 892 518 922 626 q 761 254 851 375 q 553 63 671 133 q 321 -7 436 -7 q 165 34 233 -7 q 61 147 97 75 q 16 313 25 218 q 39 518 7 408 q 168 781 78 660 q 376 972 258 901 q 610 1042 493 1042 m 638 518 q 681 760 674 649 q 667 935 689 871 q 597 999 644 999 q 437 858 526 999 q 293 518 347 717 q 249 276 257 386 q 263 101 242 165 q 332 36 285 36 q 492 177 403 36 q 638 518 582 318 z "},"1":{"ha":435,"x_min":-108,"x_max":481,"o":"m 235 142 q 232 62 224 92 q 257 19 240 32 l 272 7 l -108 7 q -99 11 -104 8 q -77 25 -93 14 q -47 50 -61 36 q -18 89 -33 64 q 4 142 -3 114 l 158 696 q 163 784 171 754 q 138 824 154 814 l 119 832 l 479 1031 l 235 142 z "},"2":{"ha":781,"x_min":3,"x_max":817,"o":"m 497 1031 q 558 1028 529 1031 q 619 1020 586 1026 q 681 1003 653 1014 q 735 976 708 992 q 778 935 761 960 q 805 879 794 910 q 814 806 815 849 q 799 713 813 763 q 730 583 779 644 q 619 480 681 522 q 485 392 558 438 q 349 309 413 346 q 228 223 285 272 q 146 122 172 174 q 236 121 207 121 q 327 130 279 121 q 429 158 375 139 q 532 216 483 178 q 611 306 581 254 l 529 7 l 10 7 l 4 36 q 39 76 17 50 q 133 174 61 103 q 276 307 204 246 q 494 532 422 428 q 594 742 565 636 q 611 818 606 785 q 615 887 617 851 q 598 945 613 922 q 551 983 583 968 q 468 999 518 999 q 385 968 426 999 q 318 891 343 938 q 285 796 293 844 q 303 706 276 747 q 392 650 331 665 l 204 442 q 194 444 201 442 q 169 455 188 446 q 136 476 151 464 q 104 511 121 489 q 78 560 88 533 q 69 628 69 588 q 83 717 69 669 q 152 863 106 800 q 257 961 199 926 q 376 1013 315 996 q 497 1031 436 1031 z "},"3":{"ha":997,"x_min":69,"x_max":963,"o":"m 940 782 q 713 547 896 611 q 619 525 664 531 l 618 515 q 650 514 638 514 q 691 510 663 514 q 739 501 719 507 q 786 484 758 496 q 832 456 814 472 q 867 415 850 440 q 891 359 885 390 q 895 284 897 328 q 879 188 893 240 q 798 36 856 103 q 667 -68 740 -31 q 512 -131 594 -106 q 351 -164 429 -156 q 210 -176 274 -172 q 108 -176 146 -179 l 69 -174 l 79 -139 q 474 -53 335 -139 q 647 225 614 32 q 649 318 656 279 q 623 384 642 357 q 579 429 604 411 q 528 457 554 447 q 479 471 501 467 q 443 476 457 475 l 428 476 l 444 535 q 706 649 613 535 q 760 817 774 732 q 674 906 747 893 q 647 908 661 908 q 557 891 603 908 q 477 850 511 874 q 416 802 443 826 q 374 761 389 778 l 360 744 l 328 763 q 697 990 504 971 q 900 928 826 1004 q 940 782 961 865 z "},"4":{"ha":843,"x_min":68,"x_max":875,"o":"m 875 1032 l 708 431 l 783 429 l 744 285 l 668 285 l 629 142 q 626 62 618 92 q 651 19 635 32 l 667 7 l 286 7 q 296 11 290 8 q 318 25 301 14 q 348 50 335 36 q 376 89 361 64 q 400 142 392 114 l 439 285 l 69 285 l 225 494 l 624 1031 l 693 1031 l 693 1029 l 875 1032 m 251 435 l 479 432 l 615 926 l 251 435 z "},"5":{"ha":911,"x_min":19,"x_max":943,"o":"m 907 822 l 451 825 l 306 542 q 434 577 360 567 q 588 579 508 588 q 726 531 668 571 q 807 413 783 490 q 790 208 831 335 q 708 56 764 122 q 581 -47 651 -10 q 433 -110 511 -85 q 283 -144 356 -136 q 150 -155 210 -151 q 56 -157 90 -158 l 19 -154 l 29 -119 q 228 -98 144 -115 q 367 -55 311 -81 q 460 15 422 -29 q 520 108 499 60 q 561 228 542 156 q 580 340 579 292 q 569 418 581 389 q 535 467 558 447 q 485 496 511 488 q 425 507 460 504 q 315 499 371 513 q 231 469 258 486 l 203 453 l 454 949 l 943 949 l 907 822 z "},"6":{"ha":840,"x_min":-8,"x_max":808,"o":"m 532 758 q 652 769 596 778 q 749 719 708 760 q 799 603 789 678 q 779 415 808 528 q 594 106 725 221 q 308 -8 463 -8 q 223 -4 261 -8 q 144 13 185 0 q 76 47 104 25 q 27 105 49 68 q -1 192 6 142 q -1 316 -8 243 q 32 479 7 389 q 122 710 68 610 q 232 869 175 810 q 355 967 289 929 q 477 1018 421 1004 q 592 1032 533 1032 q 684 1022 646 1032 q 740 994 722 1011 q 766 958 757 978 q 772 919 775 939 q 765 883 769 899 q 756 856 761 867 l 751 846 q 750 851 750 847 q 749 867 750 856 q 744 888 747 878 q 735 913 740 899 q 720 938 729 928 q 698 959 711 947 q 668 975 685 971 q 628 981 651 979 q 578 975 606 983 q 403 826 483 953 q 267 494 322 700 q 233 340 246 418 q 219 188 221 263 q 241 67 218 114 q 311 21 264 21 q 463 122 388 21 q 588 406 538 224 q 607 523 606 471 q 592 611 608 575 q 542 663 575 647 q 452 671 508 679 q 324 628 396 663 q 353 656 333 639 q 427 708 372 672 q 532 758 482 744 z "},"7":{"ha":881,"x_min":-28,"x_max":811,"o":"m 214 1031 l 811 1031 l 797 983 q 631 857 711 936 q 494 688 551 778 q 386 502 436 599 q 303 318 336 406 q 248 160 271 231 q 215 49 225 90 l 204 7 l -28 7 q 72 270 11 143 q 198 491 132 397 q 335 666 264 585 q 471 801 407 747 q 586 894 535 856 q 668 951 638 933 l 699 969 q 533 956 613 969 q 393 922 453 943 q 281 875 333 900 q 194 824 229 850 q 133 778 158 799 q 96 743 108 757 l 85 731 l 214 1031 z "},"8":{"ha":788,"x_min":-40,"x_max":743,"o":"m 728 825 q 558 632 704 739 q 685 474 644 557 q 699 288 726 390 q 221 -8 617 -8 q 101 9 153 -8 q 13 64 49 26 q -31 160 -24 101 q -18 304 -39 219 q 208 554 22 450 q 161 815 103 663 q 224 919 185 875 q 311 986 263 963 q 410 1020 360 1010 q 514 1031 460 1031 q 609 1024 568 1031 q 675 1007 650 1017 q 715 980 700 997 q 737 947 731 963 q 742 907 743 931 q 738 867 742 883 q 728 825 735 850 m 529 244 q 522 308 536 278 q 474 365 507 339 q 407 413 442 392 q 325 465 372 435 q 247 518 278 494 q 58 311 92 436 q 51 195 40 246 q 90 109 61 144 q 158 55 119 74 q 238 36 197 36 q 427 89 344 36 q 529 244 510 142 m 525 660 q 654 824 628 732 q 628 935 671 883 q 514 986 586 986 q 389 942 443 986 q 336 844 335 899 q 347 813 338 829 q 378 778 357 797 q 418 743 399 758 q 471 703 438 728 q 525 660 504 678 z "},"9":{"ha":840,"x_min":33,"x_max":850,"o":"m 533 1032 q 618 1028 581 1032 q 697 1011 656 1024 q 765 977 738 999 q 815 919 793 956 q 843 832 836 882 q 842 709 850 782 q 810 544 835 636 q 720 314 774 414 q 610 154 667 214 q 487 57 553 94 q 365 6 421 19 q 250 -8 308 -8 q 158 2 196 -8 q 102 29 119 13 q 76 65 85 46 q 69 105 67 85 q 76 142 72 125 q 86 168 81 158 l 90 178 q 92 173 92 176 q 93 158 92 169 q 98 136 94 146 q 107 111 101 126 q 122 86 113 96 q 144 65 131 76 q 174 49 157 53 q 213 42 190 44 q 264 49 236 40 q 439 198 358 71 q 575 529 519 325 q 608 683 596 606 q 622 835 621 761 q 601 956 624 910 q 531 1003 578 1003 q 379 901 454 1003 q 254 618 304 800 q 235 501 236 553 q 250 413 233 449 q 300 360 267 376 q 390 353 333 344 q 518 397 446 361 q 489 369 508 386 q 414 316 469 351 q 310 265 358 281 q 190 256 246 246 q 93 306 133 265 q 43 421 53 346 q 63 608 33 496 q 248 918 117 804 q 533 1032 379 1032 z "},"\u000b":{"ha":732,"x_min":69,"x_max":663,"o":"m 69 972 l 663 972 l 663 0 l 69 0 l 69 972 m 108 944 l 365 515 l 624 944 l 108 944 m 349 486 l 99 903 l 99 68 l 349 486 m 367 457 l 110 29 l 624 29 l 367 457 m 383 486 l 635 65 l 635 906 l 383 486 z "},"\f":{"ha":732,"x_min":69,"x_max":663,"o":"m 69 972 l 663 972 l 663 0 l 69 0 l 69 972 m 108 944 l 365 515 l 624 944 l 108 944 m 349 486 l 99 903 l 99 68 l 349 486 m 367 457 l 110 29 l 624 29 l 367 457 m 383 486 l 635 65 l 635 906 l 383 486 z "},"ª":{"ha":732,"x_min":69,"x_max":663,"o":"m 69 972 l 663 972 l 663 0 l 69 0 l 69 972 m 108 944 l 365 515 l 624 944 l 108 944 m 349 486 l 99 903 l 99 68 l 349 486 m 367 457 l 110 29 l 624 29 l 367 457 m 383 486 l 635 65 l 635 906 l 383 486 z "},"¬":{"ha":732,"x_min":69,"x_max":663,"o":"m 69 972 l 663 972 l 663 0 l 69 0 l 69 972 m 108 944 l 365 515 l 624 944 l 108 944 m 349 486 l 99 903 l 99 68 l 349 486 m 367 457 l 110 29 l 624 29 l 367 457 m 383 486 l 635 65 l 635 906 l 383 486 z "},"¯":{"ha":732,"x_min":69,"x_max":663,"o":"m 69 972 l 663 972 l 663 0 l 69 0 l 69 972 m 108 944 l 365 515 l 624 944 l 108 944 m 349 486 l 99 903 l 99 68 l 349 486 m 367 457 l 110 29 l 624 29 l 367 457 m 383 486 l 635 65 l 635 906 l 383 486 z "},"²":{"ha":732,"x_min":69,"x_max":663,"o":"m 69 972 l 663 972 l 663 0 l 69 0 l 69 972 m 108 944 l 365 515 l 624 944 l 108 944 m 349 486 l 99 903 l 99 68 l 349 486 m 367 457 l 110 29 l 624 29 l 367 457 m 383 486 l 635 65 l 635 906 l 383 486 z "},"³":{"ha":732,"x_min":69,"x_max":663,"o":"m 69 972 l 663 972 l 663 0 l 69 0 l 69 972 m 108 944 l 365 515 l 624 944 l 108 944 m 349 486 l 99 903 l 99 68 l 349 486 m 367 457 l 110 29 l 624 29 l 367 457 m 383 486 l 635 65 l 635 906 l 383 486 z "},"µ":{"ha":732,"x_min":69,"x_max":663,"o":"m 69 972 l 663 972 l 663 0 l 69 0 l 69 972 m 108 944 l 365 515 l 624 944 l 108 944 m 349 486 l 99 903 l 99 68 l 349 486 m 367 457 l 110 29 l 624 29 l 367 457 m 383 486 l 635 65 l 635 906 l 383 486 z "},"·":{"ha":732,"x_min":69,"x_max":663,"o":"m 69 972 l 663 972 l 663 0 l 69 0 l 69 972 m 108 944 l 365 515 l 624 944 l 108 944 m 349 486 l 99 903 l 99 68 l 349 486 m 367 457 l 110 29 l 624 29 l 367 457 m 383 486 l 635 65 l 635 906 l 383 486 z "},"¹":{"ha":732,"x_min":69,"x_max":663,"o":"m 69 972 l 663 972 l 663 0 l 69 0 l 69 972 m 108 944 l 365 515 l 624 944 l 108 944 m 349 486 l 99 903 l 99 68 l 349 486 m 367 457 l 110 29 l 624 29 l 367 457 m 383 486 l 635 65 l 635 906 l 383 486 z "},"º":{"ha":732,"x_min":69,"x_max":663,"o":"m 69 972 l 663 972 l 663 0 l 69 0 l 69 972 m 108 944 l 365 515 l 624 944 l 108 944 m 349 486 l 99 903 l 99 68 l 349 486 m 367 457 l 110 29 l 624 29 l 367 457 m 383 486 l 635 65 l 635 906 l 383 486 z "},"¼":{"ha":732,"x_min":69,"x_max":663,"o":"m 69 972 l 663 972 l 663 0 l 69 0 l 69 972 m 108 944 l 365 515 l 624 944 l 108 944 m 349 486 l 99 903 l 99 68 l 349 486 m 367 457 l 110 29 l 624 29 l 367 457 m 383 486 l 635 65 l 635 906 l 383 486 z "},"½":{"ha":732,"x_min":69,"x_max":663,"o":"m 69 972 l 663 972 l 663 0 l 69 0 l 69 972 m 108 944 l 365 515 l 624 944 l 108 944 m 349 486 l 99 903 l 99 68 l 349 486 m 367 457 l 110 29 l 624 29 l 367 457 m 383 486 l 635 65 l 635 906 l 383 486 z "},"¾":{"ha":732,"x_min":69,"x_max":663,"o":"m 69 972 l 663 972 l 663 0 l 69 0 l 69 972 m 108 944 l 365 515 l 624 944 l 108 944 m 349 486 l 99 903 l 99 68 l 349 486 m 367 457 l 110 29 l 624 29 l 367 457 m 383 486 l 635 65 l 635 906 l 383 486 z "},"Æ":{"ha":732,"x_min":69,"x_max":663,"o":"m 69 972 l 663 972 l 663 0 l 69 0 l 69 972 m 108 944 l 365 515 l 624 944 l 108 944 m 349 486 l 99 903 l 99 68 l 349 486 m 367 457 l 110 29 l 624 29 l 367 457 m 383 486 l 635 65 l 635 906 l 383 486 z "},"Ð":{"ha":732,"x_min":69,"x_max":663,"o":"m 69 972 l 663 972 l 663 0 l 69 0 l 69 972 m 108 944 l 365 515 l 624 944 l 108 944 m 349 486 l 99 903 l 99 68 l 349 486 m 367 457 l 110 29 l 624 29 l 367 457 m 383 486 l 635 65 l 635 906 l 383 486 z "},"Þ":{"ha":732,"x_min":69,"x_max":663,"o":"m 69 972 l 663 972 l 663 0 l 69 0 l 69 972 m 108 944 l 365 515 l 624 944 l 108 944 m 349 486 l 99 903 l 99 68 l 349 486 m 367 457 l 110 29 l 624 29 l 367 457 m 383 486 l 635 65 l 635 906 l 383 486 z "},"ß":{"ha":732,"x_min":69,"x_max":663,"o":"m 69 972 l 663 972 l 663 0 l 69 0 l 69 972 m 108 944 l 365 515 l 624 944 l 108 944 m 349 486 l 99 903 l 99 68 l 349 486 m 367 457 l 110 29 l 624 29 l 367 457 m 383 486 l 635 65 l 635 906 l 383 486 z "},"æ":{"ha":732,"x_min":69,"x_max":663,"o":"m 69 972 l 663 972 l 663 0 l 69 0 l 69 972 m 108 944 l 365 515 l 624 944 l 108 944 m 349 486 l 99 903 l 99 68 l 349 486 m 367 457 l 110 29 l 624 29 l 367 457 m 383 486 l 635 65 l 635 906 l 383 486 z "},"ð":{"ha":732,"x_min":69,"x_max":663,"o":"m 69 972 l 663 972 l 663 0 l 69 0 l 69 972 m 108 944 l 365 515 l 624 944 l 108 944 m 349 486 l 99 903 l 99 68 l 349 486 m 367 457 l 110 29 l 624 29 l 367 457 m 383 486 l 635 65 l 635 906 l 383 486 z "},"þ":{"ha":732,"x_min":69,"x_max":663,"o":"m 69 972 l 663 972 l 663 0 l 69 0 l 69 972 m 108 944 l 365 515 l 624 944 l 108 944 m 349 486 l 99 903 l 99 68 l 349 486 m 367 457 l 110 29 l 624 29 l 367 457 m 383 486 l 635 65 l 635 906 l 383 486 z "},"‣":{"ha":732,"x_min":69,"x_max":663,"o":"m 69 972 l 663 972 l 663 0 l 69 0 l 69 972 m 108 944 l 365 515 l 624 944 l 108 944 m 349 486 l 99 903 l 99 68 l 349 486 m 367 457 l 110 29 l 624 29 l 367 457 m 383 486 l 635 65 l 635 906 l 383 486 z "},"․":{"ha":732,"x_min":69,"x_max":663,"o":"m 69 972 l 663 972 l 663 0 l 69 0 l 69 972 m 108 944 l 365 515 l 624 944 l 108 944 m 349 486 l 99 903 l 99 68 l 349 486 m 367 457 l 110 29 l 624 29 l 367 457 m 383 486 l 635 65 l 635 906 l 383 486 z "},"‥":{"ha":732,"x_min":69,"x_max":663,"o":"m 69 972 l 663 972 l 663 0 l 69 0 l 69 972 m 108 944 l 365 515 l 624 944 l 108 944 m 349 486 l 99 903 l 99 68 l 349 486 m 367 457 l 110 29 l 624 29 l 367 457 m 383 486 l 635 65 l 635 906 l 383 486 z "},"ﬁ":{"ha":732,"x_min":69,"x_max":663,"o":"m 69 972 l 663 972 l 663 0 l 69 0 l 69 972 m 108 944 l 365 515 l 624 944 l 108 944 m 349 486 l 99 903 l 99 68 l 349 486 m 367 457 l 110 29 l 624 29 l 367 457 m 383 486 l 635 65 l 635 906 l 383 486 z "},"ﬃ":{"ha":732,"x_min":69,"x_max":663,"o":"m 69 972 l 663 972 l 663 0 l 69 0 l 69 972 m 108 944 l 365 515 l 624 944 l 108 944 m 349 486 l 99 903 l 99 68 l 349 486 m 367 457 l 110 29 l 624 29 l 367 457 m 383 486 l 635 65 l 635 906 l 383 486 z "},"ﬄ":{"ha":732,"x_min":69,"x_max":663,"o":"m 69 972 l 663 972 l 663 0 l 69 0 l 69 972 m 108 944 l 365 515 l 624 944 l 108 944 m 349 486 l 99 903 l 99 68 l 349 486 m 367 457 l 110 29 l 624 29 l 367 457 m 383 486 l 635 65 l 635 906 l 383 486 z "},"ﬅ":{"ha":732,"x_min":69,"x_max":663,"o":"m 69 972 l 663 972 l 663 0 l 69 0 l 69 972 m 108 944 l 365 515 l 624 944 l 108 944 m 349 486 l 99 903 l 99 68 l 349 486 m 367 457 l 110 29 l 624 29 l 367 457 m 383 486 l 635 65 l 635 906 l 383 486 z "},"\u0000":{"ha":0,"x_min":0,"x_max":0,"o":""},"\n":{"ha":0,"x_min":0,"x_max":0,"o":""},"\r":{"ha":0,"x_min":0,"x_max":0,"o":""}," ":{"ha":307,"x_min":0,"x_max":0,"o":""},"!":{"ha":289,"x_min":-81,"x_max":340,"o":"m -20 168 q -2 183 -20 168 q 58 197 17 197 q 119 168 99 197 q 128 98 140 139 q 81 28 117 57 q 3 0 44 0 q -58 28 -37 0 q -68 98 -79 57 q -20 168 -57 139 m 286 1025 q 315 1016 303 1025 q 333 985 326 1007 q 340 932 340 964 q 332 852 340 900 q 307 743 324 804 q 190 426 261 579 q 79 274 118 274 q 50 348 53 274 q 64 531 47 422 q 110 743 81 639 q 196 958 150 890 q 286 1025 242 1025 z "},"\"":{"ha":347,"x_min":38,"x_max":310,"o":"m 85 1064 l 308 1064 l 204 786 l 138 786 l 167 953 l 103 786 l 38 786 l 85 1064 z "},"#":{"ha":1242,"x_min":56,"x_max":1186,"o":"m 1000 758 l 1185 758 l 1156 707 l 971 707 l 768 343 l 953 343 l 924 292 l 739 292 l 589 22 l 404 22 l 554 292 l 426 292 l 276 22 l 92 22 l 242 292 l 57 292 l 86 343 l 271 343 l 474 707 l 289 707 l 318 758 l 503 758 l 635 996 l 819 996 l 688 758 l 815 758 l 947 996 l 1132 996 l 1000 758 m 583 343 l 786 707 l 658 707 l 456 343 l 583 343 z "},"$":{"ha":768,"x_min":-68,"x_max":811,"o":"m 672 653 q 671 672 672 660 q 664 718 669 683 q 650 784 658 753 q 624 853 642 815 q 585 919 607 892 l 444 599 q 456 589 449 596 q 522 535 501 553 q 575 490 543 518 q 619 445 607 461 q 648 404 632 429 q 667 358 664 379 q 670 311 671 338 q 661 256 669 285 q 514 53 629 136 q 221 -29 399 -29 q 171 -25 207 -29 l 133 -112 l 89 -106 l 128 -18 q 55 7 89 -8 q -1 38 21 22 q -38 69 -22 54 q -61 93 -54 83 l -68 103 l 54 340 q 56 317 56 332 q 64 260 57 301 q 81 182 71 218 q 109 105 90 146 q 153 39 128 64 l 290 354 q 267 372 268 371 q 203 426 229 403 q 148 490 178 450 q 106 571 118 531 q 95 669 93 611 q 122 790 97 726 q 468 1006 207 1008 q 474 1006 472 1006 q 574 1001 519 1006 l 618 1103 l 661 1096 l 618 997 q 719 982 671 992 q 789 965 767 972 l 811 958 l 672 653 m 446 986 q 314 929 353 986 q 301 788 275 872 q 410 628 328 703 l 551 951 q 446 986 506 986 m 447 132 q 424 226 456 181 q 325 326 392 272 l 188 13 q 207 6 200 7 q 358 26 279 -14 q 447 132 436 65 z "},"%":{"ha":1011,"x_min":56,"x_max":956,"o":"m 401 588 q 360 550 401 588 q 229 511 318 511 q 99 588 140 511 q 88 774 58 665 q 201 958 118 882 q 374 1035 285 1035 q 503 958 463 1035 q 515 774 544 882 q 401 588 485 665 m 242 774 q 218 658 225 711 q 217 574 211 606 q 238 543 222 543 q 299 610 263 543 q 361 774 335 678 q 385 889 378 836 q 386 972 392 942 q 365 1003 381 1003 q 304 935 340 1003 q 242 774 268 868 m 609 435 q 651 474 609 435 q 781 513 693 513 q 910 435 869 513 q 922 250 951 358 q 808 65 892 142 q 636 -12 725 -12 q 506 65 547 -12 q 495 250 465 142 q 609 435 525 358 m 768 250 q 792 365 785 313 q 793 449 799 418 q 772 479 788 479 q 711 413 747 479 q 649 250 675 346 q 625 135 632 188 q 624 51 618 82 q 644 21 629 21 q 706 88 669 21 q 768 250 742 156 m 838 924 l 954 924 l 174 100 l 56 100 l 838 924 z "},"&":{"ha":750,"x_min":-53,"x_max":693,"o":"m 601 485 l 524 207 q 520 197 522 203 q 515 172 518 190 q 510 137 511 154 q 515 99 510 119 q 532 65 521 79 q 567 40 543 50 q 626 29 592 29 l 615 -12 q 608 -12 613 -12 q 588 -12 603 -12 q 561 -9 574 -11 q 530 -3 549 -7 q 498 6 511 0 q 469 22 485 13 q 447 45 453 32 q 436 76 440 58 q 440 117 432 94 q 435 103 439 111 q 417 72 432 94 q 380 33 401 50 q 317 1 358 15 q 226 -12 276 -12 q 180 -11 200 -12 q 129 -6 160 -10 q 76 5 99 -3 q 27 24 53 13 q -15 56 1 36 q -42 101 -31 75 q -52 163 -53 126 q -39 243 -51 199 q 5 347 -24 300 q 65 422 33 393 q 133 470 97 450 q 200 499 168 490 q 258 513 232 508 q 300 518 285 518 l 315 518 l 318 529 q 311 531 315 529 q 294 537 307 532 q 270 547 282 542 q 242 563 258 553 q 214 585 225 574 q 190 613 203 597 q 172 648 176 629 q 165 691 168 667 q 172 742 163 715 q 308 926 203 857 q 531 996 413 996 q 616 974 585 996 q 654 922 647 953 q 660 860 661 890 q 651 808 658 829 l 646 786 l 589 786 q 593 803 590 793 q 598 840 596 814 q 594 887 600 867 q 569 924 589 907 q 515 940 550 940 q 393 897 438 940 q 321 750 349 853 q 339 609 296 661 q 478 557 382 557 l 525 557 l 554 660 l 649 660 l 621 557 l 693 557 l 672 485 l 601 485 m 456 304 l 506 485 l 449 485 q 438 485 444 485 q 409 481 431 485 q 367 469 388 476 q 318 444 346 461 q 267 403 290 426 q 222 340 244 379 q 186 250 200 300 q 188 93 161 157 q 274 29 214 29 q 356 57 317 29 q 407 128 396 85 l 456 304 z "},"'":{"ha":183,"x_min":132,"x_max":306,"o":"m 181 1064 l 304 1064 l 199 786 l 133 786 l 181 1064 z "},"(":{"ha":500,"x_min":-6,"x_max":471,"o":"m 154 451 q 161 -8 83 193 q 179 -51 176 -51 l 97 -51 q 81 -31 92 -44 q 46 29 69 -18 q 8 130 22 76 q -4 270 -6 183 q 23 451 -3 357 q 97 635 49 544 q 194 790 144 726 q 290 903 244 854 q 367 978 336 953 l 396 1003 l 471 1003 q 445 975 461 993 q 385 899 429 957 q 302 780 340 840 q 222 629 264 719 q 154 451 179 539 z "},")":{"ha":515,"x_min":26,"x_max":490,"o":"m 392 1003 q 409 976 399 993 q 442 904 419 960 q 476 789 464 849 q 488 637 489 729 q 460 451 486 544 q 389 271 435 357 q 296 128 343 185 q 206 30 249 72 q 136 -32 163 -12 l 108 -51 l 26 -51 q 50 -28 35 -43 q 107 35 65 -14 q 185 139 149 85 q 263 278 222 193 q 328 451 304 363 q 360 628 353 539 q 362 781 368 717 q 346 898 356 846 q 326 976 336 950 l 317 1003 l 392 1003 z "},"*":{"ha":399,"x_min":40,"x_max":360,"o":"m 358 806 l 221 775 l 289 690 l 217 643 l 186 754 l 89 643 l 40 682 l 163 782 l 40 799 l 81 871 l 182 828 l 201 943 l 276 943 l 221 822 l 356 875 l 358 806 z "},"+":{"ha":457,"x_min":-28,"x_max":408,"o":"m 407 435 l 374 311 l 235 311 l 196 172 l 72 172 l 111 311 l -28 311 l 7 435 l 146 435 l 183 574 l 307 574 l 268 435 l 407 435 z "},",":{"ha":261,"x_min":-94,"x_max":126,"o":"m 43 197 q 106 168 85 197 q 115 99 126 139 q 78 31 107 69 q 26 -33 50 -8 l 3 -57 l -32 -57 l 13 3 q -11 0 0 0 q -72 29 -51 0 q -82 99 -93 58 q -34 168 -71 139 q 43 197 3 197 z "},"-":{"ha":446,"x_min":-33,"x_max":403,"o":"m 1 435 l 401 435 l 368 311 l -33 311 l 1 435 z "},".":{"ha":261,"x_min":-94,"x_max":126,"o":"m -34 168 q -16 183 -34 168 q 44 197 3 197 q 106 168 85 197 q 115 98 126 139 q 67 28 103 57 q -10 0 31 0 q -72 28 -51 0 q -82 98 -93 57 q -34 168 -71 139 z "},"/":{"ha":1157,"x_min":69,"x_max":1089,"o":"m 953 1057 l 1089 1057 l 204 -137 l 69 -137 l 953 1057 z "},":":{"ha":269,"x_min":-54,"x_max":297,"o":"m 5 294 q 23 309 5 294 q 83 324 42 324 q 144 294 124 324 q 154 225 165 265 q 106 156 143 185 q 28 126 69 126 q -33 156 -12 126 q -43 225 -54 185 q 5 294 -32 265 m 137 769 q 155 783 137 769 q 214 797 174 797 q 275 769 254 797 q 285 699 296 740 q 237 630 274 658 q 160 601 200 601 q 98 630 119 601 q 88 699 76 658 q 137 769 100 740 z "},";":{"ha":272,"x_min":-53,"x_max":299,"o":"m 138 769 q 157 783 138 769 q 215 797 175 797 q 276 769 256 797 q 286 699 297 740 q 238 630 275 658 q 161 601 201 601 q 99 630 121 601 q 90 699 78 658 q 138 769 101 740 m 83 324 q 146 295 125 324 q 156 225 167 267 q 119 157 147 196 q 67 94 92 118 l 43 69 l 10 69 l 54 129 q 29 126 40 126 q -32 156 -11 126 q -42 225 -53 185 q 6 294 -31 265 q 83 324 43 324 z "},"<":{"ha":296,"x_min":-21,"x_max":275,"o":"m 275 572 l 239 446 l 99 375 l 200 304 l 165 176 l -19 350 l -18 358 l -6 400 l 275 572 z "},"=":{"ha":371,"x_min":-47,"x_max":342,"o":"m 46 543 l 342 543 l 307 419 l 11 419 l 46 543 m -47 207 l -12 331 l 282 331 l 249 207 l -47 207 z "},">":{"ha":296,"x_min":-54,"x_max":242,"o":"m 240 400 l 228 354 l 226 350 l -54 176 l -18 304 l 122 375 l 21 446 l 56 572 l 240 400 z "},"?":{"ha":856,"x_min":47,"x_max":842,"o":"m 217 168 q 236 183 217 168 q 294 197 254 197 q 356 168 335 197 q 365 98 376 139 q 317 28 354 57 q 240 0 281 0 q 178 28 199 0 q 169 98 157 57 q 217 168 181 139 m 492 1025 q 760 954 679 1025 q 800 732 842 883 q 747 628 783 674 q 665 551 711 582 q 574 497 619 521 q 483 443 528 472 q 413 385 438 414 q 381 331 394 363 q 361 279 367 300 l 357 260 l 263 260 q 263 268 263 263 q 267 292 263 274 q 282 328 272 310 q 315 373 292 347 q 371 424 339 399 q 473 528 415 456 q 576 685 531 601 q 640 843 622 768 q 621 953 657 918 q 534 994 586 988 q 433 983 482 1000 q 344 925 385 965 q 289 829 304 885 q 283 753 278 785 q 306 700 289 721 q 340 667 322 679 q 372 649 358 654 l 388 644 l 200 435 q 83 533 119 464 q 78 710 47 603 q 127 824 94 771 q 210 924 160 878 q 333 997 260 969 q 492 1025 406 1025 z "},"@":{"ha":992,"x_min":-35,"x_max":988,"o":"m 960 782 q 978 624 986 708 q 945 470 969 539 q 892 363 921 401 q 825 288 861 319 q 762 242 789 257 q 708 219 735 228 q 671 208 681 210 q 654 207 661 207 l 528 204 l 486 279 q 364 204 439 217 q 322 201 344 201 q 271 206 299 201 q 222 224 243 211 q 185 260 201 238 q 169 319 169 283 q 182 404 168 354 q 230 492 197 456 q 303 549 263 529 q 384 577 344 568 q 464 586 424 586 q 553 531 542 586 q 563 565 557 543 q 571 594 568 588 q 572 599 571 596 q 583 638 579 624 q 591 677 586 651 q 595 718 596 703 q 591 750 594 733 q 576 775 588 767 q 546 783 565 783 q 475 742 511 783 q 421 658 439 700 l 401 617 l 314 696 q 322 708 317 700 q 347 735 326 715 q 392 769 367 754 q 461 797 417 785 q 557 808 506 808 q 657 794 614 808 q 722 758 700 781 q 757 708 743 736 q 769 652 771 679 q 763 600 767 625 l 667 254 q 672 254 669 254 q 675 254 675 254 q 703 261 688 256 q 744 279 719 267 q 799 318 769 292 q 856 381 829 344 q 899 470 878 411 q 929 608 919 529 q 914 757 939 688 q 611 919 854 919 q 467 904 535 919 q 351 864 400 889 q 260 801 303 839 q 190 726 218 764 q 138 640 161 688 q 99 551 114 592 q 72 464 85 511 q 104 183 18 267 q 447 99 190 99 l 435 53 q 63 150 160 53 q 25 464 -35 247 q 40 515 33 494 q 62 577 46 535 q 94 650 78 619 q 138 724 110 681 q 196 798 165 767 q 272 863 226 829 q 367 917 317 896 q 483 951 417 938 q 624 965 550 965 q 841 919 756 965 q 960 782 926 872 m 492 308 q 511 377 496 322 q 535 465 526 432 q 535 474 535 468 q 533 492 535 479 q 526 516 531 506 q 509 535 521 526 q 482 543 497 543 q 363 376 408 543 q 382 229 322 229 q 436 249 408 229 q 478 289 464 268 l 492 308 z "},"A":{"ha":974,"x_min":-169,"x_max":861,"o":"m 428 0 q 490 51 464 7 q 524 138 515 94 q 528 203 532 182 l 506 342 l 192 342 l 186 332 q 118 94 103 207 q 144 36 124 60 q 182 7 164 13 l 200 0 l -169 0 q -149 15 -162 6 q -99 56 -136 24 q -24 122 -61 88 q 60 211 13 157 q 147 321 108 265 l 438 760 l 394 1025 l 658 1025 q 753 274 714 500 q 778 158 763 210 q 807 79 793 107 q 833 32 821 51 q 853 7 846 13 l 860 1 l 428 0 m 211 371 l 500 371 l 443 721 l 211 371 z "},"À":{"ha":974,"x_min":-169,"x_max":861,"o":"m 428 0 q 490 51 464 7 q 524 138 515 94 q 528 203 532 182 l 506 342 l 192 342 l 186 332 q 118 94 103 207 q 144 36 124 60 q 182 7 164 13 l 200 0 l -169 0 q -149 15 -162 6 q -99 56 -136 24 q -24 122 -61 88 q 60 211 13 157 q 147 321 108 265 l 438 760 l 394 1025 l 658 1025 q 753 274 714 500 q 778 158 763 210 q 807 79 793 107 q 833 32 821 51 q 853 7 846 13 l 860 1 l 428 0 m 211 371 l 500 371 l 443 721 l 211 371 z "},"Á":{"ha":974,"x_min":-169,"x_max":861,"o":"m 428 0 q 490 51 464 7 q 524 138 515 94 q 528 203 532 182 l 506 342 l 192 342 l 186 332 q 118 94 103 207 q 144 36 124 60 q 182 7 164 13 l 200 0 l -169 0 q -149 15 -162 6 q -99 56 -136 24 q -24 122 -61 88 q 60 211 13 157 q 147 321 108 265 l 438 760 l 394 1025 l 658 1025 q 753 274 714 500 q 778 158 763 210 q 807 79 793 107 q 833 32 821 51 q 853 7 846 13 l 860 1 l 428 0 m 211 371 l 500 371 l 443 721 l 211 371 z "},"Â":{"ha":974,"x_min":-169,"x_max":861,"o":"m 428 0 q 490 51 464 7 q 524 138 515 94 q 528 203 532 182 l 506 342 l 192 342 l 186 332 q 118 94 103 207 q 144 36 124 60 q 182 7 164 13 l 200 0 l -169 0 q -149 15 -162 6 q -99 56 -136 24 q -24 122 -61 88 q 60 211 13 157 q 147 321 108 265 l 438 760 l 394 1025 l 658 1025 q 753 274 714 500 q 778 158 763 210 q 807 79 793 107 q 833 32 821 51 q 853 7 846 13 l 860 1 l 428 0 m 211 371 l 500 371 l 443 721 l 211 371 z "},"Ã":{"ha":974,"x_min":-169,"x_max":861,"o":"m 428 0 q 490 51 464 7 q 524 138 515 94 q 528 203 532 182 l 506 342 l 192 342 l 186 332 q 118 94 103 207 q 144 36 124 60 q 182 7 164 13 l 200 0 l -169 0 q -149 15 -162 6 q -99 56 -136 24 q -24 122 -61 88 q 60 211 13 157 q 147 321 108 265 l 438 760 l 394 1025 l 658 1025 q 753 274 714 500 q 778 158 763 210 q 807 79 793 107 q 833 32 821 51 q 853 7 846 13 l 860 1 l 428 0 m 211 371 l 500 371 l 443 721 l 211 371 z "},"Ä":{"ha":974,"x_min":-169,"x_max":861,"o":"m 428 0 q 490 51 464 7 q 524 138 515 94 q 528 203 532 182 l 506 342 l 192 342 l 186 332 q 118 94 103 207 q 144 36 124 60 q 182 7 164 13 l 200 0 l -169 0 q -149 15 -162 6 q -99 56 -136 24 q -24 122 -61 88 q 60 211 13 157 q 147 321 108 265 l 438 760 l 394 1025 l 658 1025 q 753 274 714 500 q 778 158 763 210 q 807 79 793 107 q 833 32 821 51 q 853 7 846 13 l 860 1 l 428 0 m 211 371 l 500 371 l 443 721 l 211 371 z "},"Å":{"ha":974,"x_min":-169,"x_max":861,"o":"m 428 0 q 490 51 464 7 q 524 138 515 94 q 528 203 532 182 l 506 342 l 192 342 l 186 332 q 118 94 103 207 q 144 36 124 60 q 182 7 164 13 l 200 0 l -169 0 q -149 15 -162 6 q -99 56 -136 24 q -24 122 -61 88 q 60 211 13 157 q 147 321 108 265 l 438 760 l 394 1025 l 658 1025 q 753 274 714 500 q 778 158 763 210 q 807 79 793 107 q 833 32 821 51 q 853 7 846 13 l 860 1 l 428 0 m 211 371 l 500 371 l 443 721 l 211 371 z "},"B":{"ha":871,"x_min":-136,"x_max":872,"o":"m 851 785 q 808 692 838 733 q 746 628 778 651 q 674 587 714 604 q 608 563 633 569 q 553 550 582 556 l 550 542 q 561 541 554 542 q 590 536 568 540 q 630 526 611 532 q 676 508 649 519 q 723 483 704 497 q 764 446 742 468 q 794 396 786 424 q 806 332 801 368 q 794 253 811 296 q 747 155 781 199 q 669 85 713 111 q 578 42 626 60 q 486 16 531 24 q 405 4 442 8 q 346 0 368 0 l 324 0 l -136 0 q -126 5 -132 1 q -105 19 -121 8 q -75 44 -89 31 q -46 83 -61 58 q -24 136 -31 108 l 185 889 q 188 969 196 939 q 163 1013 179 1000 l 147 1025 l 635 1025 q 650 1024 640 1025 q 690 1020 660 1024 q 742 1008 719 1017 q 795 983 764 1000 q 838 941 826 967 q 860 876 850 915 q 851 785 871 838 m 581 257 q 471 554 635 451 q 344 636 447 569 l 176 29 l 339 29 q 401 39 371 29 q 467 72 432 49 q 532 142 501 94 q 581 257 563 190 m 494 578 q 506 585 499 581 q 535 608 514 590 q 575 648 557 626 q 613 705 593 669 q 643 781 632 740 q 633 936 669 876 q 543 996 597 996 l 443 996 l 353 669 l 494 578 z "},"C":{"ha":861,"x_min":-17,"x_max":929,"o":"m 464 174 q 590 191 531 174 q 686 233 649 208 q 751 284 724 258 q 790 327 778 310 q 803 346 803 344 l 821 346 q 810 326 817 338 q 776 278 803 314 q 721 209 750 242 q 642 137 692 176 q 540 69 593 97 q 415 20 488 40 q 267 0 343 0 q 138 24 193 0 q 53 85 83 47 q 5 174 22 124 q -14 278 -12 225 q -9 388 -15 332 q 10 491 -3 444 q 38 576 22 538 q 269 909 126 793 q 571 1025 413 1025 q 699 1015 638 1025 q 800 992 760 1006 q 871 967 840 979 q 915 944 901 954 l 929 935 l 638 618 q 643 640 640 626 q 652 692 646 653 q 660 767 658 732 q 660 847 663 803 q 648 922 658 890 q 613 974 638 953 q 553 996 589 996 q 289 661 411 996 q 247 404 238 513 q 314 235 256 296 q 464 174 372 174 z "},"Ç":{"ha":861,"x_min":-17,"x_max":929,"o":"m 464 174 q 590 191 531 174 q 686 233 649 208 q 751 284 724 258 q 790 327 778 310 q 803 346 803 344 l 821 346 q 810 326 817 338 q 776 278 803 314 q 721 209 750 242 q 642 137 692 176 q 540 69 593 97 q 415 20 488 40 q 267 0 343 0 q 138 24 193 0 q 53 85 83 47 q 5 174 22 124 q -14 278 -12 225 q -9 388 -15 332 q 10 491 -3 444 q 38 576 22 538 q 269 909 126 793 q 571 1025 413 1025 q 699 1015 638 1025 q 800 992 760 1006 q 871 967 840 979 q 915 944 901 954 l 929 935 l 638 618 q 643 640 640 626 q 652 692 646 653 q 660 767 658 732 q 660 847 663 803 q 648 922 658 890 q 613 974 638 953 q 553 996 589 996 q 289 661 411 996 q 247 404 238 513 q 314 235 256 296 q 464 174 372 174 z "},"D":{"ha":883,"x_min":-135,"x_max":897,"o":"m 453 1025 q 545 1022 504 1025 q 643 1007 586 1019 q 741 974 700 994 q 821 914 782 954 q 878 820 860 874 q 894 684 896 767 q 865 499 893 601 q 784 315 838 397 q 667 182 731 232 q 535 94 604 132 q 401 40 465 57 q 285 13 336 22 q 201 1 233 3 l 171 1 l -135 1 q -125 6 -131 3 q -103 19 -119 8 q -74 44 -87 31 q -44 83 -60 58 q -22 136 -29 108 l 186 889 q 189 969 197 939 q 164 1013 181 1000 l 149 1025 l 453 1025 m 636 501 q 565 956 731 842 q 446 996 508 994 l 179 29 q 198 31 186 29 q 247 41 210 32 q 319 67 283 50 q 401 119 354 83 q 489 201 449 154 q 569 327 529 249 q 636 501 610 406 z "},"E":{"ha":806,"x_min":-135,"x_max":921,"o":"m 149 1025 l 921 1025 l 844 747 q 840 760 843 751 q 826 796 838 769 q 797 845 814 822 q 749 897 781 868 q 677 947 717 926 q 577 982 638 968 q 446 996 517 996 l 331 579 l 624 579 l 607 403 q 599 418 604 408 q 571 452 593 428 q 519 497 549 476 q 438 535 490 517 q 324 556 386 553 l 179 31 q 367 56 276 31 q 519 117 458 81 q 626 191 579 154 q 693 253 672 228 l 715 279 l 639 1 l -135 1 q -125 6 -131 3 q -103 19 -119 8 q -74 44 -87 31 q -44 83 -60 58 q -22 136 -29 108 l 186 889 q 189 969 197 939 q 164 1013 181 1000 l 149 1025 z "},"È":{"ha":806,"x_min":-135,"x_max":921,"o":"m 149 1025 l 921 1025 l 844 747 q 840 760 843 751 q 826 796 838 769 q 797 845 814 822 q 749 897 781 868 q 677 947 717 926 q 577 982 638 968 q 446 996 517 996 l 331 579 l 624 579 l 607 403 q 599 418 604 408 q 571 452 593 428 q 519 497 549 476 q 438 535 490 517 q 324 556 386 553 l 179 31 q 367 56 276 31 q 519 117 458 81 q 626 191 579 154 q 693 253 672 228 l 715 279 l 639 1 l -135 1 q -125 6 -131 3 q -103 19 -119 8 q -74 44 -87 31 q -44 83 -60 58 q -22 136 -29 108 l 186 889 q 189 969 197 939 q 164 1013 181 1000 l 149 1025 z "},"É":{"ha":806,"x_min":-135,"x_max":921,"o":"m 149 1025 l 921 1025 l 844 747 q 840 760 843 751 q 826 796 838 769 q 797 845 814 822 q 749 897 781 868 q 677 947 717 926 q 577 982 638 968 q 446 996 517 996 l 331 579 l 624 579 l 607 403 q 599 418 604 408 q 571 452 593 428 q 519 497 549 476 q 438 535 490 517 q 324 556 386 553 l 179 31 q 367 56 276 31 q 519 117 458 81 q 626 191 579 154 q 693 253 672 228 l 715 279 l 639 1 l -135 1 q -125 6 -131 3 q -103 19 -119 8 q -74 44 -87 31 q -44 83 -60 58 q -22 136 -29 108 l 186 889 q 189 969 197 939 q 164 1013 181 1000 l 149 1025 z "},"Ê":{"ha":806,"x_min":-135,"x_max":921,"o":"m 149 1025 l 921 1025 l 844 747 q 840 760 843 751 q 826 796 838 769 q 797 845 814 822 q 749 897 781 868 q 677 947 717 926 q 577 982 638 968 q 446 996 517 996 l 331 579 l 624 579 l 607 403 q 599 418 604 408 q 571 452 593 428 q 519 497 549 476 q 438 535 490 517 q 324 556 386 553 l 179 31 q 367 56 276 31 q 519 117 458 81 q 626 191 579 154 q 693 253 672 228 l 715 279 l 639 1 l -135 1 q -125 6 -131 3 q -103 19 -119 8 q -74 44 -87 31 q -44 83 -60 58 q -22 136 -29 108 l 186 889 q 189 969 197 939 q 164 1013 181 1000 l 149 1025 z "},"Ë":{"ha":806,"x_min":-135,"x_max":921,"o":"m 149 1025 l 921 1025 l 844 747 q 840 760 843 751 q 826 796 838 769 q 797 845 814 822 q 749 897 781 868 q 677 947 717 926 q 577 982 638 968 q 446 996 517 996 l 331 579 l 624 579 l 607 403 q 599 418 604 408 q 571 452 593 428 q 519 497 549 476 q 438 535 490 517 q 324 556 386 553 l 179 31 q 367 56 276 31 q 519 117 458 81 q 626 191 579 154 q 693 253 672 228 l 715 279 l 639 1 l -135 1 q -125 6 -131 3 q -103 19 -119 8 q -74 44 -87 31 q -44 83 -60 58 q -22 136 -29 108 l 186 889 q 189 969 197 939 q 164 1013 181 1000 l 149 1025 z "},"F":{"ha":779,"x_min":-135,"x_max":921,"o":"m 149 1025 l 921 1025 l 844 747 q 840 760 843 751 q 826 796 838 769 q 797 845 814 822 q 749 897 781 868 q 677 947 717 926 q 577 981 638 967 q 446 996 517 996 l 313 513 l 606 513 l 588 336 q 581 351 586 342 q 553 386 575 361 q 501 431 531 411 q 420 468 472 450 q 306 490 368 486 l 208 136 q 206 56 197 86 q 229 14 214 26 l 246 1 l -135 1 q -125 6 -131 3 q -103 19 -119 8 q -74 44 -87 31 q -44 83 -60 58 q -22 136 -29 108 l 186 889 q 189 969 197 939 q 164 1013 181 1000 l 149 1025 z "},"G":{"ha":961,"x_min":-15,"x_max":958,"o":"m 478 585 l 957 585 l 796 1 l 597 68 l 732 560 l 696 560 q 643 369 656 417 q 618 285 632 325 q 573 191 604 246 q 503 97 542 136 q 403 29 465 57 q 267 1 340 1 q 118 37 179 1 q 29 129 57 72 q -6 260 1 186 q -4 409 -14 335 q 29 557 6 483 q 108 726 56 644 q 231 873 161 808 q 390 978 301 938 q 571 1025 478 1019 q 706 1022 643 1029 q 809 1003 769 1015 q 878 977 849 990 q 919 954 907 964 l 932 944 l 753 693 q 752 711 753 700 q 747 755 751 722 q 735 817 742 788 q 713 881 728 846 q 677 942 697 917 q 625 983 657 967 q 554 996 593 999 q 454 940 506 993 q 363 806 403 886 q 295 630 324 726 q 265 445 267 533 q 289 286 264 357 q 369 173 322 206 q 461 156 417 140 q 547 225 506 171 q 610 364 588 279 l 665 563 q 651 560 660 561 q 612 548 642 558 q 553 524 582 538 q 483 481 524 510 q 404 418 442 453 l 478 585 z "},"H":{"ha":915,"x_min":-135,"x_max":1051,"o":"m 671 1025 l 1051 1025 q 1042 1021 1047 1024 q 1020 1006 1036 1018 q 990 981 1004 994 q 961 942 976 967 q 938 889 946 918 l 731 136 q 728 56 719 86 q 753 14 736 26 l 768 1 l 388 1 q 397 6 392 3 q 419 19 403 8 q 449 44 436 31 q 478 83 463 58 q 501 136 493 108 l 589 454 l 296 454 l 208 136 q 206 56 197 86 q 229 14 214 26 l 246 1 l -135 1 q -125 6 -131 3 q -103 19 -119 8 q -74 44 -87 31 q -44 83 -60 58 q -22 136 -29 108 l 186 889 q 189 969 197 939 q 164 1013 181 1000 l 149 1025 l 528 1025 q 519 1021 525 1024 q 497 1006 514 1018 q 467 981 481 994 q 438 942 453 967 q 415 889 424 918 l 304 483 l 597 483 l 708 889 q 711 969 719 939 q 686 1013 703 1000 l 671 1025 z "},"I":{"ha":393,"x_min":-135,"x_max":529,"o":"m 149 1025 l 453 1025 l 208 136 q 206 56 197 86 q 229 14 214 26 l 246 1 l -135 1 q -125 6 -131 3 q -103 19 -119 8 q -74 44 -87 31 q -44 83 -60 58 q -22 136 -29 108 l 186 889 q 189 969 197 939 q 164 1013 181 1000 l 149 1025 m 453 1025 l 528 1025 q 519 1021 525 1024 q 497 1006 513 1018 q 467 981 481 994 q 438 942 453 967 q 415 889 424 918 l 453 1025 z "},"Ì":{"ha":393,"x_min":-135,"x_max":529,"o":"m 149 1025 l 453 1025 l 208 136 q 206 56 197 86 q 229 14 214 26 l 246 1 l -135 1 q -125 6 -131 3 q -103 19 -119 8 q -74 44 -87 31 q -44 83 -60 58 q -22 136 -29 108 l 186 889 q 189 969 197 939 q 164 1013 181 1000 l 149 1025 m 453 1025 l 528 1025 q 519 1021 525 1024 q 497 1006 513 1018 q 467 981 481 994 q 438 942 453 967 q 415 889 424 918 l 453 1025 z "},"Í":{"ha":393,"x_min":-135,"x_max":529,"o":"m 149 1025 l 453 1025 l 208 136 q 206 56 197 86 q 229 14 214 26 l 246 1 l -135 1 q -125 6 -131 3 q -103 19 -119 8 q -74 44 -87 31 q -44 83 -60 58 q -22 136 -29 108 l 186 889 q 189 969 197 939 q 164 1013 181 1000 l 149 1025 m 453 1025 l 528 1025 q 519 1021 525 1024 q 497 1006 513 1018 q 467 981 481 994 q 438 942 453 967 q 415 889 424 918 l 453 1025 z "},"Î":{"ha":393,"x_min":-135,"x_max":529,"o":"m 149 1025 l 453 1025 l 208 136 q 206 56 197 86 q 229 14 214 26 l 246 1 l -135 1 q -125 6 -131 3 q -103 19 -119 8 q -74 44 -87 31 q -44 83 -60 58 q -22 136 -29 108 l 186 889 q 189 969 197 939 q 164 1013 181 1000 l 149 1025 m 453 1025 l 528 1025 q 519 1021 525 1024 q 497 1006 513 1018 q 467 981 481 994 q 438 942 453 967 q 415 889 424 918 l 453 1025 z "},"Ï":{"ha":393,"x_min":-135,"x_max":529,"o":"m 149 1025 l 453 1025 l 208 136 q 206 56 197 86 q 229 14 214 26 l 246 1 l -135 1 q -125 6 -131 3 q -103 19 -119 8 q -74 44 -87 31 q -44 83 -60 58 q -22 136 -29 108 l 186 889 q 189 969 197 939 q 164 1013 181 1000 l 149 1025 m 453 1025 l 528 1025 q 519 1021 525 1024 q 497 1006 513 1018 q 467 981 481 994 q 438 942 453 967 q 415 889 424 918 l 453 1025 z "},"J":{"ha":694,"x_min":-115,"x_max":836,"o":"m 456 1025 l 836 1025 q 826 1021 832 1024 q 805 1006 821 1018 q 775 981 789 994 q 746 942 761 967 q 724 889 731 918 l 576 360 q 432 88 526 175 q 174 0 338 0 q 58 15 111 0 q -25 49 6 29 q -77 88 -56 68 q -107 122 -99 108 l -114 136 l 108 432 q 79 267 82 363 q 101 101 76 172 q 171 29 126 29 q 220 49 196 29 q 260 95 244 68 q 286 149 275 122 q 303 196 297 176 l 308 215 l 494 889 q 496 969 504 939 q 472 1013 488 1000 l 456 1025 z "},"K":{"ha":963,"x_min":-135,"x_max":1069,"o":"m 208 136 q 201 97 203 115 q 203 65 200 78 q 212 40 207 51 q 222 22 217 29 q 233 10 228 15 q 242 3 239 6 q 246 1 246 0 l -135 1 q -125 6 -131 3 q -103 19 -119 8 q -74 44 -87 31 q -44 83 -60 58 q -22 136 -29 108 l 186 889 q 189 969 197 939 q 164 1013 181 1000 l 149 1025 l 528 1025 q 519 1021 525 1024 q 497 1006 514 1018 q 467 981 481 994 q 438 942 453 967 q 415 889 424 918 l 208 136 m 761 86 q 865 110 794 68 q 869 110 872 114 q 783 42 849 83 q 640 1 717 1 q 595 7 617 1 q 558 23 574 13 q 531 45 543 33 q 510 69 518 57 q 497 90 503 81 q 489 106 492 100 l 488 113 l 332 526 l 328 540 q 496 706 381 593 q 587 835 547 756 q 640 969 626 915 l 654 1025 l 1069 1025 q 956 992 1028 1025 q 812 914 885 960 q 672 822 739 868 q 563 743 604 775 l 519 711 q 761 86 711 110 z "},"L":{"ha":776,"x_min":-135,"x_max":715,"o":"m 179 29 q 367 56 275 29 q 516 116 458 83 q 625 191 574 149 q 692 251 676 233 q 715 279 707 268 l 639 1 l -135 1 q -125 6 -131 3 q -103 19 -119 8 q -74 44 -87 31 q -44 83 -60 58 q -22 136 -29 108 l 186 889 q 189 969 197 939 q 164 1013 181 1000 l 149 1025 l 528 1025 q 519 1021 525 1024 q 497 1006 514 1018 q 467 981 481 994 q 438 942 453 967 q 415 889 424 918 l 179 29 z "},"M":{"ha":1142,"x_min":-133,"x_max":1279,"o":"m 996 1025 l 1278 1025 q 1269 1021 1275 1024 q 1247 1006 1263 1018 q 1217 981 1231 994 q 1188 942 1203 967 q 1165 889 1174 918 l 958 136 q 956 56 947 86 q 979 14 964 26 l 996 1 l 615 1 q 625 6 619 3 q 647 19 631 8 q 676 44 663 31 q 706 83 690 58 q 728 136 721 108 q 939 904 938 899 l 478 276 l 492 1 l 286 1 l 229 949 l 24 206 q 13 82 7 128 q 38 18 19 36 l 54 1 l -133 1 q -74 73 -106 21 q -22 167 -42 125 l -4 208 l 213 996 l 192 1025 l 440 1025 q 476 317 440 1025 l 996 1025 z "},"N":{"ha":888,"x_min":-133,"x_max":1022,"o":"m 731 1025 l 1021 1025 q 993 996 1010 1014 q 942 924 976 978 q 893 817 907 869 l 667 1 l 638 1 l 206 865 l 206 867 l 24 206 q 13 82 7 128 q 38 18 19 36 l 54 1 l -133 1 q -74 73 -106 21 q -22 167 -42 125 l -4 208 l 214 996 l 192 1025 l 418 1025 l 742 376 l 838 722 q 850 840 854 789 q 826 926 846 890 q 786 983 807 961 q 747 1015 765 1006 l 731 1025 z "},"Ñ":{"ha":888,"x_min":-133,"x_max":1022,"o":"m 731 1025 l 1021 1025 q 993 996 1010 1014 q 942 924 976 978 q 893 817 907 869 l 667 1 l 638 1 l 206 865 l 206 867 l 24 206 q 13 82 7 128 q 38 18 19 36 l 54 1 l -133 1 q -74 73 -106 21 q -22 167 -42 125 l -4 208 l 214 996 l 192 1025 l 418 1025 l 742 376 l 838 722 q 850 840 854 789 q 826 926 846 890 q 786 983 807 961 q 747 1015 765 1006 l 731 1025 z "},"O":{"ha":982,"x_min":-54,"x_max":1038,"o":"m 247 915 q 322 981 247 915 q 639 1046 397 1046 q 959 915 881 1046 q 963 515 1038 785 q 738 114 888 244 q 346 -17 588 -17 q 26 114 104 -17 q 22 515 -53 244 q 247 915 96 785 m 729 514 q 774 886 799 765 q 628 1007 750 1007 q 415 886 506 1007 q 254 514 324 765 q 209 143 185 264 q 356 22 233 22 q 569 143 478 22 q 729 514 660 264 z "},"Ò":{"ha":982,"x_min":-54,"x_max":1038,"o":"m 247 915 q 322 981 247 915 q 639 1046 397 1046 q 959 915 881 1046 q 963 515 1038 785 q 738 114 888 244 q 346 -17 588 -17 q 26 114 104 -17 q 22 515 -53 244 q 247 915 96 785 m 729 514 q 774 886 799 765 q 628 1007 750 1007 q 415 886 506 1007 q 254 514 324 765 q 209 143 185 264 q 356 22 233 22 q 569 143 478 22 q 729 514 660 264 z "},"Ó":{"ha":982,"x_min":-54,"x_max":1038,"o":"m 247 915 q 322 981 247 915 q 639 1046 397 1046 q 959 915 881 1046 q 963 515 1038 785 q 738 114 888 244 q 346 -17 588 -17 q 26 114 104 -17 q 22 515 -53 244 q 247 915 96 785 m 729 514 q 774 886 799 765 q 628 1007 750 1007 q 415 886 506 1007 q 254 514 324 765 q 209 143 185 264 q 356 22 233 22 q 569 143 478 22 q 729 514 660 264 z "},"Ô":{"ha":982,"x_min":-54,"x_max":1038,"o":"m 247 915 q 322 981 247 915 q 639 1046 397 1046 q 959 915 881 1046 q 963 515 1038 785 q 738 114 888 244 q 346 -17 588 -17 q 26 114 104 -17 q 22 515 -53 244 q 247 915 96 785 m 729 514 q 774 886 799 765 q 628 1007 750 1007 q 415 886 506 1007 q 254 514 324 765 q 209 143 185 264 q 356 22 233 22 q 569 143 478 22 q 729 514 660 264 z "},"Õ":{"ha":982,"x_min":-54,"x_max":1038,"o":"m 247 915 q 322 981 247 915 q 639 1046 397 1046 q 959 915 881 1046 q 963 515 1038 785 q 738 114 888 244 q 346 -17 588 -17 q 26 114 104 -17 q 22 515 -53 244 q 247 915 96 785 m 729 514 q 774 886 799 765 q 628 1007 750 1007 q 415 886 506 1007 q 254 514 324 765 q 209 143 185 264 q 356 22 233 22 q 569 143 478 22 q 729 514 660 264 z "},"Ö":{"ha":982,"x_min":-54,"x_max":1038,"o":"m 247 915 q 322 981 247 915 q 639 1046 397 1046 q 959 915 881 1046 q 963 515 1038 785 q 738 114 888 244 q 346 -17 588 -17 q 26 114 104 -17 q 22 515 -53 244 q 247 915 96 785 m 729 514 q 774 886 799 765 q 628 1007 750 1007 q 415 886 506 1007 q 254 514 324 765 q 209 143 185 264 q 356 22 233 22 q 569 143 478 22 q 729 514 660 264 z "},"Ø":{"ha":982,"x_min":-54,"x_max":1038,"o":"m 247 915 q 322 981 247 915 q 639 1046 397 1046 q 959 915 881 1046 q 963 515 1038 785 q 738 114 888 244 q 346 -17 588 -17 q 26 114 104 -17 q 22 515 -53 244 q 247 915 96 785 m 729 514 q 774 886 799 765 q 628 1007 750 1007 q 415 886 506 1007 q 254 514 324 765 q 209 143 185 264 q 356 22 233 22 q 569 143 478 22 q 729 514 660 264 z "},"P":{"ha":779,"x_min":-135,"x_max":864,"o":"m 453 1025 q 504 1028 472 1026 q 614 1018 536 1029 q 745 980 692 1007 q 831 885 799 953 q 836 719 863 818 q 775 593 817 649 q 684 506 733 538 q 578 452 635 474 q 471 424 522 431 q 377 414 419 417 q 310 413 335 411 l 285 415 l 208 136 q 206 56 197 86 q 229 14 214 26 l 246 1 l 171 1 l -135 1 q -125 6 -131 3 q -103 19 -119 8 q -74 44 -87 31 q -44 83 -60 58 q -22 136 -29 108 l -36 85 l 186 889 q 189 969 197 939 q 164 1013 181 1000 l 149 1025 l 224 1025 l 453 1025 m 625 735 q 640 823 638 783 q 637 890 643 863 q 616 937 631 917 q 585 968 601 957 q 549 986 569 979 q 512 995 528 993 q 478 997 496 997 q 455 997 461 997 q 444 996 449 996 l 293 444 q 308 443 299 443 q 344 448 317 443 q 397 462 371 453 q 458 492 424 471 q 522 543 493 514 q 579 622 551 572 q 625 735 607 672 z "},"Q":{"ha":983,"x_min":-61,"x_max":1039,"o":"m 248 915 q 323 981 248 915 q 640 1046 399 1046 q 960 915 882 1046 q 964 515 1039 785 q 739 114 889 244 q 347 -17 589 -17 q 253 -10 300 -17 l 176 -60 l 181 -64 q 336 -21 263 -10 q 408 -46 379 -28 q 451 -81 438 -64 q 489 -110 464 -97 q 551 -122 514 -122 q 651 -99 600 -122 q 729 -54 703 -76 l 756 -31 q 418 -282 617 -282 q 327 -266 367 -282 q 271 -235 288 -250 q 231 -192 254 -221 q 204 -158 208 -162 q 179 -142 194 -147 q 149 -135 164 -136 q 119 -136 133 -135 q 97 -139 106 -137 l 88 -140 l 158 -97 l 157 -92 l 8 -186 l -60 -185 l 219 -4 q 7 156 56 28 q 24 515 -42 285 q 248 915 97 785 m 731 515 q 776 886 800 765 q 630 1007 751 1007 q 417 886 508 1007 q 257 515 326 765 q 212 143 188 264 q 358 22 236 22 q 570 143 479 22 q 731 515 661 264 z "},"R":{"ha":868,"x_min":-135,"x_max":864,"o":"m -135 0 q -125 6 -131 3 q -103 19 -119 8 q -74 44 -87 31 q -44 83 -60 58 q -22 136 -29 108 l -60 0 l -135 0 m 208 136 q 240 4 183 46 l 246 1 l 171 1 l 208 136 m 186 889 q 154 1021 211 979 l 149 1025 l 224 1025 l 186 889 m 836 719 q 567 449 781 521 q 694 58 674 57 q 720 66 704 60 q 746 78 736 72 l 757 85 l 763 68 q 726 50 749 61 q 644 19 703 39 q 544 0 586 0 q 503 3 521 0 q 473 18 486 7 q 451 38 460 29 q 433 70 443 47 q 417 107 422 93 q 401 156 413 121 q 347 413 379 226 l 285 415 l 171 0 l -60 0 l 224 1025 l 453 1025 q 504 1027 472 1026 q 614 1017 536 1028 q 745 980 692 1007 q 831 885 799 953 q 836 719 863 818 m 625 735 q 641 823 639 783 q 637 890 643 863 q 616 937 631 917 q 585 968 601 957 q 549 986 569 979 q 512 995 528 993 q 478 997 496 997 q 455 997 461 997 q 446 996 449 996 l 293 443 q 308 443 299 443 q 344 448 317 443 q 397 462 371 453 q 458 492 424 471 q 522 543 493 514 q 579 622 551 572 q 625 735 607 672 z "},"S":{"ha":726,"x_min":-81,"x_max":800,"o":"m 433 1010 q 319 972 360 1010 q 278 878 279 933 q 315 754 278 822 q 424 629 353 686 q 444 613 431 624 q 511 559 490 576 q 564 513 532 542 q 608 469 596 485 q 637 428 621 453 q 656 382 653 403 q 658 335 658 361 q 650 279 658 308 q 501 77 617 160 q 210 -6 386 -6 q 101 8 153 -6 q 19 42 50 22 q -36 80 -12 61 q -69 113 -60 99 l -79 126 l 43 364 q 44 347 43 357 q 49 304 44 336 q 59 243 53 272 q 77 177 65 214 q 104 112 89 140 q 143 60 119 83 q 194 29 167 36 q 346 49 267 10 q 436 156 425 89 q 431 207 440 181 q 409 254 422 233 q 366 303 396 275 q 316 347 336 331 q 256 396 296 364 q 191 450 217 426 q 135 514 165 474 q 93 594 106 554 q 83 692 81 635 q 110 814 85 750 q 457 1029 194 1032 q 463 1029 461 1029 q 634 1017 550 1029 q 758 994 718 1006 l 799 982 l 660 676 q 659 695 660 683 q 653 742 658 707 q 639 808 647 776 q 613 878 631 839 q 573 944 596 917 q 514 991 550 972 q 433 1010 478 1010 z "},"T":{"ha":897,"x_min":46,"x_max":1015,"o":"m 118 1 q 128 6 122 3 q 149 19 133 8 q 179 44 165 31 q 208 83 193 58 q 231 136 224 108 l 193 1 l 118 1 m 167 1025 l 1015 1025 l 950 689 q 949 703 950 694 q 941 737 947 711 q 925 787 935 763 q 896 843 915 811 q 851 901 876 875 q 784 949 825 926 q 694 983 743 972 l 461 136 q 458 56 450 86 q 482 14 467 26 l 499 1 l 193 1 l 464 983 q 317 931 389 967 q 199 854 246 894 q 115 776 151 814 q 63 714 79 739 l 46 689 l 167 1025 z "},"U":{"ha":858,"x_min":-1,"x_max":996,"o":"m 704 1025 l 994 1025 q 967 996 985 1014 q 915 924 950 978 q 867 817 881 869 q 792 544 846 740 q 732 331 738 349 q 683 209 714 267 q 603 98 653 151 q 481 13 554 44 q 317 -19 407 -19 q 90 24 164 -19 q 8 163 17 68 q 42 408 -1 258 l 175 889 q 178 969 186 939 q 153 1013 169 1000 l 138 1025 l 518 1025 q 508 1021 514 1024 q 486 1006 503 1018 q 456 981 469 994 q 428 942 443 967 q 404 889 413 918 l 249 325 q 226 233 233 272 q 221 153 219 194 q 237 88 222 113 q 285 46 251 63 q 374 29 319 29 q 495 55 440 29 q 585 117 550 81 q 649 207 619 153 q 692 301 678 261 q 719 393 706 342 l 811 722 q 824 840 828 789 q 800 926 819 890 q 760 983 781 961 q 722 1015 739 1006 l 704 1025 z "},"Ù":{"ha":858,"x_min":-1,"x_max":996,"o":"m 704 1025 l 994 1025 q 967 996 985 1014 q 915 924 950 978 q 867 817 881 869 q 792 544 846 740 q 732 331 738 349 q 683 209 714 267 q 603 98 653 151 q 481 13 554 44 q 317 -19 407 -19 q 90 24 164 -19 q 8 163 17 68 q 42 408 -1 258 l 175 889 q 178 969 186 939 q 153 1013 169 1000 l 138 1025 l 518 1025 q 508 1021 514 1024 q 486 1006 503 1018 q 456 981 469 994 q 428 942 443 967 q 404 889 413 918 l 249 325 q 226 233 233 272 q 221 153 219 194 q 237 88 222 113 q 285 46 251 63 q 374 29 319 29 q 495 55 440 29 q 585 117 550 81 q 649 207 619 153 q 692 301 678 261 q 719 393 706 342 l 811 722 q 824 840 828 789 q 800 926 819 890 q 760 983 781 961 q 722 1015 739 1006 l 704 1025 z "},"Ú":{"ha":858,"x_min":-1,"x_max":996,"o":"m 704 1025 l 994 1025 q 967 996 985 1014 q 915 924 950 978 q 867 817 881 869 q 792 544 846 740 q 732 331 738 349 q 683 209 714 267 q 603 98 653 151 q 481 13 554 44 q 317 -19 407 -19 q 90 24 164 -19 q 8 163 17 68 q 42 408 -1 258 l 175 889 q 178 969 186 939 q 153 1013 169 1000 l 138 1025 l 518 1025 q 508 1021 514 1024 q 486 1006 503 1018 q 456 981 469 994 q 428 942 443 967 q 404 889 413 918 l 249 325 q 226 233 233 272 q 221 153 219 194 q 237 88 222 113 q 285 46 251 63 q 374 29 319 29 q 495 55 440 29 q 585 117 550 81 q 649 207 619 153 q 692 301 678 261 q 719 393 706 342 l 811 722 q 824 840 828 789 q 800 926 819 890 q 760 983 781 961 q 722 1015 739 1006 l 704 1025 z "},"Û":{"ha":858,"x_min":-1,"x_max":996,"o":"m 704 1025 l 994 1025 q 967 996 985 1014 q 915 924 950 978 q 867 817 881 869 q 792 544 846 740 q 732 331 738 349 q 683 209 714 267 q 603 98 653 151 q 481 13 554 44 q 317 -19 407 -19 q 90 24 164 -19 q 8 163 17 68 q 42 408 -1 258 l 175 889 q 178 969 186 939 q 153 1013 169 1000 l 138 1025 l 518 1025 q 508 1021 514 1024 q 486 1006 503 1018 q 456 981 469 994 q 428 942 443 967 q 404 889 413 918 l 249 325 q 226 233 233 272 q 221 153 219 194 q 237 88 222 113 q 285 46 251 63 q 374 29 319 29 q 495 55 440 29 q 585 117 550 81 q 649 207 619 153 q 692 301 678 261 q 719 393 706 342 l 811 722 q 824 840 828 789 q 800 926 819 890 q 760 983 781 961 q 722 1015 739 1006 l 704 1025 z "},"Ü":{"ha":858,"x_min":-1,"x_max":996,"o":"m 704 1025 l 994 1025 q 967 996 985 1014 q 915 924 950 978 q 867 817 881 869 q 792 544 846 740 q 732 331 738 349 q 683 209 714 267 q 603 98 653 151 q 481 13 554 44 q 317 -19 407 -19 q 90 24 164 -19 q 8 163 17 68 q 42 408 -1 258 l 175 889 q 178 969 186 939 q 153 1013 169 1000 l 138 1025 l 518 1025 q 508 1021 514 1024 q 486 1006 503 1018 q 456 981 469 994 q 428 942 443 967 q 404 889 413 918 l 249 325 q 226 233 233 272 q 221 153 219 194 q 237 88 222 113 q 285 46 251 63 q 374 29 319 29 q 495 55 440 29 q 585 117 550 81 q 649 207 619 153 q 692 301 678 261 q 719 393 706 342 l 811 722 q 824 840 828 789 q 800 926 819 890 q 760 983 781 961 q 722 1015 739 1006 l 704 1025 z "},"V":{"ha":1054,"x_min":114,"x_max":1222,"o":"m 854 1025 l 1222 1025 q 1214 1019 1219 1022 q 906 704 1029 890 l 526 126 l 443 1 l 282 1 q 222 753 261 526 q 196 868 211 817 q 167 947 181 919 q 142 994 154 975 q 122 1018 129 1013 l 114 1025 l 547 1025 q 484 981 510 1025 q 451 890 458 936 q 447 822 443 844 q 459 701 449 817 q 486 426 469 585 q 519 164 503 267 l 868 693 q 935 931 949 815 q 854 1025 922 1025 z "},"W":{"ha":1524,"x_min":114,"x_max":1692,"o":"m 1324 1025 l 1692 1025 q 1683 1019 1689 1022 q 1375 704 1500 890 l 996 126 l 913 1 l 751 1 q 726 432 743 217 l 526 126 l 443 1 l 282 1 q 222 753 261 526 q 196 868 211 817 q 167 947 181 919 q 142 994 154 975 q 122 1018 129 1013 l 114 1025 l 547 1025 q 484 981 510 1025 q 451 890 458 936 q 447 822 443 844 q 459 701 449 817 q 486 426 469 585 q 519 164 503 267 l 724 474 q 692 753 708 657 q 666 868 681 817 q 638 947 651 919 q 611 994 624 975 q 592 1018 599 1013 l 583 1025 l 1017 1025 q 953 981 979 1025 q 920 890 928 936 q 917 822 913 844 q 928 701 918 817 q 956 426 939 585 q 989 164 972 267 l 1338 693 q 1404 931 1419 815 q 1324 1025 1392 1025 z "},"X":{"ha":996,"x_min":-162,"x_max":1157,"o":"m 754 136 q 780 84 764 108 q 811 44 796 60 q 841 19 826 29 q 865 5 856 10 q 874 1 874 0 l 456 1 q 463 6 458 3 q 476 19 467 8 q 490 44 485 31 q 496 83 496 58 q 486 136 496 108 l 399 407 q 204 236 347 363 q 165 179 182 218 q 143 101 149 140 q 158 31 138 61 q 228 1 179 1 l -162 1 q 186 254 79 161 q 389 433 311 364 l 240 889 q 195 968 225 935 q 143 1014 165 1001 l 121 1025 l 539 1025 q 532 1021 536 1024 q 519 1006 528 1018 q 504 981 510 994 q 499 942 499 967 q 508 889 499 918 l 596 618 q 790 789 724 731 q 829 847 813 808 q 851 925 846 885 q 836 995 857 965 q 767 1025 815 1025 l 1157 1025 q 810 771 915 864 q 606 592 626 611 l 754 136 z "},"Y":{"ha":971,"x_min":110,"x_max":1139,"o":"m 1139 1025 q 1076 983 1115 1010 q 946 885 1038 957 q 796 754 854 814 q 611 547 717 674 l 607 533 l 499 136 q 496 56 488 86 q 519 14 504 26 l 536 0 l 156 0 q 165 5 160 1 q 187 19 171 8 q 217 44 203 31 q 246 83 231 58 q 268 136 261 108 l 360 467 l 229 889 q 185 968 215 935 q 133 1014 156 1001 l 110 1025 l 528 1025 q 522 1021 526 1024 q 508 1006 518 1018 q 494 981 499 994 q 489 942 489 967 q 497 889 489 918 l 597 568 q 775 768 710 693 q 840 879 821 821 q 836 981 858 938 q 749 1025 814 1025 l 1139 1025 z "},"Ý":{"ha":971,"x_min":110,"x_max":1139,"o":"m 1139 1025 q 1076 983 1115 1010 q 946 885 1038 957 q 796 754 854 814 q 611 547 717 674 l 607 533 l 499 136 q 496 56 488 86 q 519 14 504 26 l 536 0 l 156 0 q 165 5 160 1 q 187 19 171 8 q 217 44 203 31 q 246 83 231 58 q 268 136 261 108 l 360 467 l 229 889 q 185 968 215 935 q 133 1014 156 1001 l 110 1025 l 528 1025 q 522 1021 526 1024 q 508 1006 518 1018 q 494 981 499 994 q 489 942 489 967 q 497 889 489 918 l 597 568 q 775 768 710 693 q 840 879 821 821 q 836 981 858 938 q 749 1025 814 1025 l 1139 1025 z "},"Ÿ":{"ha":971,"x_min":110,"x_max":1139,"o":"m 1139 1025 q 1076 983 1115 1010 q 946 885 1038 957 q 796 754 854 814 q 611 547 717 674 l 607 533 l 499 136 q 496 56 488 86 q 519 14 504 26 l 536 0 l 156 0 q 165 5 160 1 q 187 19 171 8 q 217 44 203 31 q 246 83 231 58 q 268 136 261 108 l 360 467 l 229 889 q 185 968 215 935 q 133 1014 156 1001 l 110 1025 l 528 1025 q 522 1021 526 1024 q 508 1006 518 1018 q 494 981 499 994 q 489 942 489 967 q 497 889 489 918 l 597 568 q 775 768 710 693 q 840 879 821 821 q 836 981 858 938 q 749 1025 814 1025 l 1139 1025 z "},"Z":{"ha":875,"x_min":-119,"x_max":1001,"o":"m 363 29 q 517 63 440 29 q 645 145 593 97 q 739 242 697 193 q 801 324 781 292 q 821 357 821 356 l 693 1 l 182 1 l -117 1 q -118 6 -118 3 q -116 19 -118 8 q -107 44 -114 31 q -83 83 -100 58 q -42 136 -67 108 l 621 889 q 676 996 678 953 l 522 996 q 374 967 447 996 q 249 899 300 939 q 157 817 197 858 q 97 749 117 776 l 78 719 l 154 1025 l 1000 1025 l 226 136 q 171 29 171 72 l 363 29 z "},"[":{"ha":508,"x_min":-62,"x_max":479,"o":"m 311 1000 q 475 954 438 1015 q 478 946 478 947 l 453 917 q 444 924 450 919 q 415 935 438 928 q 364 940 393 942 q 299 898 319 939 q 244 738 278 857 q 243 728 243 732 q 103 224 200 574 q 100 214 103 219 q 76 122 83 150 q 67 63 69 94 q 74 22 64 32 q 107 11 85 11 q 160 16 135 10 q 197 28 186 22 l 210 35 l 218 6 q 211 -2 217 3 q 188 -19 206 -7 q 150 -37 171 -31 q 94 -49 129 -43 q 22 -49 60 -56 q -32 -22 -11 -43 q -58 25 -53 -1 q -62 77 -62 51 q -58 121 -62 103 l -54 138 l 132 814 q 138 831 135 819 q 158 874 142 843 q 192 928 174 904 q 243 973 211 951 q 311 1000 275 994 z "},"\\":{"ha":499,"x_min":69,"x_max":429,"o":"m 204 1057 l 429 -137 l 293 -137 l 69 1057 l 204 1057 z "},"]":{"ha":524,"x_min":26,"x_max":568,"o":"m 482 1000 q 535 974 515 994 q 561 930 556 953 q 566 877 567 907 q 563 835 565 847 q 558 814 561 822 l 558 813 l 372 138 q 367 119 371 131 q 347 78 363 108 q 313 24 332 47 q 262 -22 294 0 q 193 -49 229 -43 q 120 -49 150 -53 q 72 -37 90 -46 q 44 -19 54 -28 q 31 -3 33 -10 l 26 6 l 53 35 q 61 28 56 32 q 90 17 67 24 q 142 11 113 10 q 206 53 185 13 q 260 214 226 94 q 263 224 261 219 q 401 728 324 449 q 404 738 403 731 q 428 829 422 801 q 438 888 435 857 q 431 930 440 919 q 397 940 421 940 q 344 935 369 942 q 307 924 318 929 l 296 917 l 286 946 q 294 953 289 949 q 317 970 299 958 q 356 988 335 982 q 410 1001 376 994 q 482 1000 444 1007 z "},"^":{"ha":446,"x_min":35,"x_max":411,"o":"m 411 678 l 272 642 l 285 903 l 151 642 l 35 678 l 297 951 l 411 678 z "},"_":{"ha":453,"x_min":-125,"x_max":303,"o":"m -99 61 l 301 61 l 276 -32 l -125 -32 l -99 61 z "},"`":{"ha":249,"x_min":117,"x_max":261,"o":"m 236 886 l 260 669 l 250 669 q 168 726 192 669 l 132 811 q 142 883 118 843 q 200 922 167 922 q 224 913 215 922 q 236 886 233 903 z "},"a":{"ha":764,"x_min":-28,"x_max":769,"o":"m 611 69 q 671 85 653 69 l 675 64 q 661 48 671 57 q 619 24 651 39 q 550 8 586 8 l 465 8 q 411 28 432 8 q 389 81 390 49 q 222 -3 329 -3 q 30 99 86 -3 q 19 365 -26 200 q 180 641 67 538 q 463 744 293 744 q 574 736 521 744 q 660 716 626 728 q 720 692 694 704 q 757 671 746 679 l 769 663 q 608 81 674 315 l 611 69 m 508 550 q 478 707 549 707 q 356 634 408 708 q 257 390 303 560 q 231 269 239 325 q 227 176 224 214 q 241 113 231 139 q 267 76 251 88 q 300 64 282 64 q 338 74 319 64 q 368 100 356 85 q 386 124 381 115 q 394 138 392 132 l 393 139 l 508 550 z "},"à":{"ha":764,"x_min":-28,"x_max":769,"o":"m 611 69 q 671 85 653 69 l 675 64 q 661 48 671 57 q 619 24 651 39 q 550 8 586 8 l 465 8 q 411 28 432 8 q 389 81 390 49 q 222 -3 329 -3 q 30 99 86 -3 q 19 365 -26 200 q 180 641 67 538 q 463 744 293 744 q 574 736 521 744 q 660 716 626 728 q 720 692 694 704 q 757 671 746 679 l 769 663 q 608 81 674 315 l 611 69 m 508 550 q 478 707 549 707 q 356 634 408 708 q 257 390 303 560 q 231 269 239 325 q 227 176 224 214 q 241 113 231 139 q 267 76 251 88 q 300 64 282 64 q 338 74 319 64 q 368 100 356 85 q 386 124 381 115 q 394 138 392 132 l 393 139 l 508 550 z "},"á":{"ha":764,"x_min":-28,"x_max":769,"o":"m 611 69 q 671 85 653 69 l 675 64 q 661 48 671 57 q 619 24 651 39 q 550 8 586 8 l 465 8 q 411 28 432 8 q 389 81 390 49 q 222 -3 329 -3 q 30 99 86 -3 q 19 365 -26 200 q 180 641 67 538 q 463 744 293 744 q 574 736 521 744 q 660 716 626 728 q 720 692 694 704 q 757 671 746 679 l 769 663 q 608 81 674 315 l 611 69 m 508 550 q 478 707 549 707 q 356 634 408 708 q 257 390 303 560 q 231 269 239 325 q 227 176 224 214 q 241 113 231 139 q 267 76 251 88 q 300 64 282 64 q 338 74 319 64 q 368 100 356 85 q 386 124 381 115 q 394 138 392 132 l 393 139 l 508 550 z "},"â":{"ha":764,"x_min":-28,"x_max":769,"o":"m 611 69 q 671 85 653 69 l 675 64 q 661 48 671 57 q 619 24 651 39 q 550 8 586 8 l 465 8 q 411 28 432 8 q 389 81 390 49 q 222 -3 329 -3 q 30 99 86 -3 q 19 365 -26 200 q 180 641 67 538 q 463 744 293 744 q 574 736 521 744 q 660 716 626 728 q 720 692 694 704 q 757 671 746 679 l 769 663 q 608 81 674 315 l 611 69 m 508 550 q 478 707 549 707 q 356 634 408 708 q 257 390 303 560 q 231 269 239 325 q 227 176 224 214 q 241 113 231 139 q 267 76 251 88 q 300 64 282 64 q 338 74 319 64 q 368 100 356 85 q 386 124 381 115 q 394 138 392 132 l 393 139 l 508 550 z "},"ã":{"ha":764,"x_min":-28,"x_max":769,"o":"m 611 69 q 671 85 653 69 l 675 64 q 661 48 671 57 q 619 24 651 39 q 550 8 586 8 l 465 8 q 411 28 432 8 q 389 81 390 49 q 222 -3 329 -3 q 30 99 86 -3 q 19 365 -26 200 q 180 641 67 538 q 463 744 293 744 q 574 736 521 744 q 660 716 626 728 q 720 692 694 704 q 757 671 746 679 l 769 663 q 608 81 674 315 l 611 69 m 508 550 q 478 707 549 707 q 356 634 408 708 q 257 390 303 560 q 231 269 239 325 q 227 176 224 214 q 241 113 231 139 q 267 76 251 88 q 300 64 282 64 q 338 74 319 64 q 368 100 356 85 q 386 124 381 115 q 394 138 392 132 l 393 139 l 508 550 z "},"ä":{"ha":764,"x_min":-28,"x_max":769,"o":"m 611 69 q 671 85 653 69 l 675 64 q 661 48 671 57 q 619 24 651 39 q 550 8 586 8 l 465 8 q 411 28 432 8 q 389 81 390 49 q 222 -3 329 -3 q 30 99 86 -3 q 19 365 -26 200 q 180 641 67 538 q 463 744 293 744 q 574 736 521 744 q 660 716 626 728 q 720 692 694 704 q 757 671 746 679 l 769 663 q 608 81 674 315 l 611 69 m 508 550 q 478 707 549 707 q 356 634 408 708 q 257 390 303 560 q 231 269 239 325 q 227 176 224 214 q 241 113 231 139 q 267 76 251 88 q 300 64 282 64 q 338 74 319 64 q 368 100 356 85 q 386 124 381 115 q 394 138 392 132 l 393 139 l 508 550 z "},"å":{"ha":764,"x_min":-28,"x_max":769,"o":"m 611 69 q 671 85 653 69 l 675 64 q 661 48 671 57 q 619 24 651 39 q 550 8 586 8 l 465 8 q 411 28 432 8 q 389 81 390 49 q 222 -3 329 -3 q 30 99 86 -3 q 19 365 -26 200 q 180 641 67 538 q 463 744 293 744 q 574 736 521 744 q 660 716 626 728 q 720 692 694 704 q 757 671 746 679 l 769 663 q 608 81 674 315 l 611 69 m 508 550 q 478 707 549 707 q 356 634 408 708 q 257 390 303 560 q 231 269 239 325 q 227 176 224 214 q 241 113 231 139 q 267 76 251 88 q 300 64 282 64 q 338 74 319 64 q 368 100 356 85 q 386 124 381 115 q 394 138 392 132 l 393 139 l 508 550 z "},"b":{"ha":736,"x_min":-56,"x_max":736,"o":"m 546 736 q 608 725 578 736 q 669 686 639 714 q 717 617 699 658 q 735 508 735 575 q 712 356 735 440 q 649 206 689 272 q 567 100 610 140 q 475 34 525 60 q 384 -1 425 8 q 306 -11 343 -11 q 247 -1 272 -11 q 209 22 222 8 q 188 50 196 36 q 178 75 179 64 l 175 85 l 60 0 l -54 0 q 182 860 96 549 q 194 924 199 908 q 147 950 189 940 l 457 1019 l 344 613 q 546 736 422 739 m 469 324 q 484 369 474 335 q 503 433 494 404 q 521 503 511 463 q 533 574 531 543 q 534 634 536 606 q 518 678 532 663 q 479 694 504 694 q 419 672 449 694 q 369 616 389 649 q 335 551 350 583 q 313 497 319 519 l 306 474 l 211 131 q 210 122 211 128 q 211 104 210 117 q 217 81 213 92 q 233 63 221 71 q 264 56 246 56 q 353 107 307 56 q 428 217 400 158 q 469 324 457 276 z "},"c":{"ha":646,"x_min":-3,"x_max":663,"o":"m 647 439 l 432 436 q 457 526 432 436 q 414 703 496 703 q 406 701 411 703 q 383 686 400 700 q 349 649 365 672 q 312 578 333 626 q 272 464 290 529 q 244 278 239 349 q 278 176 250 207 q 351 146 306 146 q 486 174 422 146 q 588 258 550 201 q 576 231 583 249 q 539 168 568 213 q 473 90 510 124 q 373 27 436 56 q 236 -1 310 -1 q 110 24 161 -1 q 35 90 58 50 q 4 185 11 131 q 3 290 -3 239 q 25 397 10 342 q 190 631 60 522 q 438 740 319 740 q 545 724 500 740 q 613 680 590 707 q 648 621 635 653 q 661 557 661 589 q 659 499 661 525 q 653 456 657 472 l 647 439 z "},"ç":{"ha":646,"x_min":-3,"x_max":663,"o":"m 647 439 l 432 436 q 457 526 432 436 q 414 703 496 703 q 406 701 411 703 q 383 686 400 700 q 349 649 365 672 q 312 578 333 626 q 272 464 290 529 q 244 278 239 349 q 278 176 250 207 q 351 146 306 146 q 486 174 422 146 q 588 258 550 201 q 576 231 583 249 q 539 168 568 213 q 473 90 510 124 q 373 27 436 56 q 236 -1 310 -1 q 110 24 161 -1 q 35 90 58 50 q 4 185 11 131 q 3 290 -3 239 q 25 397 10 342 q 190 631 60 522 q 438 740 319 740 q 545 724 500 740 q 613 680 590 707 q 648 621 635 653 q 661 557 661 589 q 659 499 661 525 q 653 456 657 472 l 647 439 z "},"d":{"ha":763,"x_min":-10,"x_max":869,"o":"m 604 61 q 664 76 646 61 l 669 56 q 655 40 664 49 q 613 15 646 31 q 543 0 581 0 l 472 0 l 403 82 q 385 64 396 75 q 352 33 375 53 q 294 1 329 14 q 221 -11 258 -11 q 148 -1 183 -11 q 76 33 113 8 q 21 100 40 58 q -3 206 1 142 q 17 357 -8 269 q 78 508 40 440 q 156 617 115 575 q 241 686 196 658 q 324 725 286 714 q 393 736 361 736 q 486 708 450 738 q 526 611 522 679 l 594 860 q 606 924 610 908 q 558 950 601 940 l 868 1019 l 604 61 m 489 479 q 497 514 493 494 q 503 568 500 533 q 501 628 506 603 q 481 674 497 654 q 436 694 465 694 q 381 672 407 694 q 337 617 354 649 q 301 538 319 586 q 274 458 283 490 q 254 379 265 425 q 240 324 243 333 q 228 247 232 290 q 226 160 224 204 q 247 85 228 115 q 299 56 265 56 q 333 63 317 56 q 359 81 349 71 q 378 103 369 90 q 389 121 386 115 q 393 129 392 126 l 489 479 z "},"e":{"ha":647,"x_min":-6,"x_max":665,"o":"m 643 413 q 613 415 632 414 q 540 413 593 415 q 439 401 486 411 q 339 363 392 390 q 254 293 286 336 q 354 146 258 146 q 507 174 454 146 q 581 239 560 203 q 554 190 569 215 q 508 128 539 165 q 441 65 476 92 q 351 19 406 39 q 239 -1 297 -1 q 116 22 167 -1 q 40 81 65 44 q 6 167 15 117 q 1 266 -4 217 q 19 369 6 315 q 96 540 46 465 q 206 657 146 615 q 324 719 265 699 q 440 740 383 740 q 540 722 494 740 q 619 665 585 704 q 659 564 653 626 q 643 413 665 501 m 256 340 q 435 436 324 414 q 460 529 435 436 q 417 703 496 703 q 349 646 385 703 q 287 504 313 589 q 256 340 261 419 m 581 239 l 590 258 q 581 239 588 250 z "},"è":{"ha":647,"x_min":-6,"x_max":665,"o":"m 643 413 q 613 415 632 414 q 540 413 593 415 q 439 401 486 411 q 339 363 392 390 q 254 293 286 336 q 354 146 258 146 q 507 174 454 146 q 581 239 560 203 q 554 190 569 215 q 508 128 539 165 q 441 65 476 92 q 351 19 406 39 q 239 -1 297 -1 q 116 22 167 -1 q 40 81 65 44 q 6 167 15 117 q 1 266 -4 217 q 19 369 6 315 q 96 540 46 465 q 206 657 146 615 q 324 719 265 699 q 440 740 383 740 q 540 722 494 740 q 619 665 585 704 q 659 564 653 626 q 643 413 665 501 m 256 340 q 435 436 324 414 q 460 529 435 436 q 417 703 496 703 q 349 646 385 703 q 287 504 313 589 q 256 340 261 419 m 581 239 l 590 258 q 581 239 588 250 z "},"é":{"ha":647,"x_min":-6,"x_max":665,"o":"m 643 413 q 613 415 632 414 q 540 413 593 415 q 439 401 486 411 q 339 363 392 390 q 254 293 286 336 q 354 146 258 146 q 507 174 454 146 q 581 239 560 203 q 554 190 569 215 q 508 128 539 165 q 441 65 476 92 q 351 19 406 39 q 239 -1 297 -1 q 116 22 167 -1 q 40 81 65 44 q 6 167 15 117 q 1 266 -4 217 q 19 369 6 315 q 96 540 46 465 q 206 657 146 615 q 324 719 265 699 q 440 740 383 740 q 540 722 494 740 q 619 665 585 704 q 659 564 653 626 q 643 413 665 501 m 256 340 q 435 436 324 414 q 460 529 435 436 q 417 703 496 703 q 349 646 385 703 q 287 504 313 589 q 256 340 261 419 m 581 239 l 590 258 q 581 239 588 250 z "},"ê":{"ha":647,"x_min":-6,"x_max":665,"o":"m 643 413 q 613 415 632 414 q 540 413 593 415 q 439 401 486 411 q 339 363 392 390 q 254 293 286 336 q 354 146 258 146 q 507 174 454 146 q 581 239 560 203 q 554 190 569 215 q 508 128 539 165 q 441 65 476 92 q 351 19 406 39 q 239 -1 297 -1 q 116 22 167 -1 q 40 81 65 44 q 6 167 15 117 q 1 266 -4 217 q 19 369 6 315 q 96 540 46 465 q 206 657 146 615 q 324 719 265 699 q 440 740 383 740 q 540 722 494 740 q 619 665 585 704 q 659 564 653 626 q 643 413 665 501 m 256 340 q 435 436 324 414 q 460 529 435 436 q 417 703 496 703 q 349 646 385 703 q 287 504 313 589 q 256 340 261 419 m 581 239 l 590 258 q 581 239 588 250 z "},"ë":{"ha":647,"x_min":-6,"x_max":665,"o":"m 643 413 q 613 415 632 414 q 540 413 593 415 q 439 401 486 411 q 339 363 392 390 q 254 293 286 336 q 354 146 258 146 q 507 174 454 146 q 581 239 560 203 q 554 190 569 215 q 508 128 539 165 q 441 65 476 92 q 351 19 406 39 q 239 -1 297 -1 q 116 22 167 -1 q 40 81 65 44 q 6 167 15 117 q 1 266 -4 217 q 19 369 6 315 q 96 540 46 465 q 206 657 146 615 q 324 719 265 699 q 440 740 383 740 q 540 722 494 740 q 619 665 585 704 q 659 564 653 626 q 643 413 665 501 m 256 340 q 435 436 324 414 q 460 529 435 436 q 417 703 496 703 q 349 646 385 703 q 287 504 313 589 q 256 340 261 419 m 581 239 l 590 258 q 581 239 588 250 z "},"f":{"ha":496,"x_min":-90,"x_max":754,"o":"m 443 810 q 419 725 428 754 l 601 725 l 593 696 l 411 696 l 140 -278 l -89 -278 q 181 696 139 540 l 93 696 l 100 725 l 189 725 q 215 794 199 758 q 262 872 232 829 q 328 948 292 915 q 419 1003 365 981 q 532 1025 472 1025 q 632 1016 589 1025 q 697 994 675 1007 q 733 969 719 982 q 750 947 747 956 l 753 938 l 588 810 q 589 825 588 815 q 592 862 590 835 q 591 911 593 889 q 584 956 589 933 q 566 988 579 978 q 532 990 553 997 q 487 946 503 981 q 449 832 471 911 q 443 810 444 818 z "},"g":{"ha":724,"x_min":-47,"x_max":879,"o":"m 875 767 l 728 696 q 731 708 729 700 q 733 735 732 715 q 732 771 735 756 q 717 797 729 786 q 686 806 706 807 q 563 710 624 799 q 705 605 660 679 q 725 436 750 531 q 603 260 697 338 q 388 158 508 183 q 389 158 388 158 q 390 158 390 158 q 369 149 382 156 q 321 122 356 143 q 257 77 286 101 q 199 13 228 53 q 157 -72 169 -28 q 138 -161 143 -124 q 140 -229 133 -199 q 169 -275 146 -260 q 231 -290 192 -290 q 356 -249 299 -290 q 411 -144 414 -208 q 394 -92 410 -119 q 366 -45 378 -65 q 351 3 354 -25 q 373 71 347 31 q 456 165 399 111 q 455 159 456 164 q 456 137 454 154 q 465 101 458 119 q 492 51 472 82 q 542 -14 511 19 q 561 -72 560 -36 q 542 -149 563 -108 q 483 -225 521 -189 q 376 -285 444 -261 q 225 -308 308 -308 q 70 -290 131 -308 q -14 -239 10 -271 q -42 -164 -37 -207 q -29 -72 -47 -121 q 74 65 -7 6 q 249 151 154 125 q 61 247 125 165 q 28 436 -3 328 q 186 640 61 556 q 456 724 311 724 q 539 715 497 724 q 576 776 556 747 q 623 838 596 806 q 683 892 650 871 q 750 917 717 913 q 806 913 782 919 q 844 894 831 907 q 865 865 857 881 q 876 831 874 849 q 878 799 878 814 q 876 775 878 785 l 875 767 m 291 231 q 308 200 291 231 q 374 184 325 168 q 459 285 424 200 q 495 474 494 369 q 461 641 496 578 q 378 688 426 704 q 294 588 329 672 q 258 399 258 503 q 291 231 257 294 z "},"h":{"ha":851,"x_min":-103,"x_max":846,"o":"m 496 665 q 628 727 560 708 q 749 732 696 746 q 824 665 801 718 q 818 510 846 611 l 694 61 q 754 76 736 61 l 758 56 q 744 40 754 49 q 702 15 735 31 q 633 0 669 0 l 550 0 q 485 30 507 0 q 476 103 464 60 l 583 489 q 526 622 619 622 q 399 544 467 622 q 319 419 332 467 q 240 136 289 311 q 239 56 231 86 q 263 13 247 25 l 279 0 l -101 0 q -92 5 -99 1 q -70 19 -86 8 q -41 44 -54 31 q -12 83 -28 58 q 11 136 3 107 q 111 501 38 235 q 210 860 185 767 q 222 924 226 908 q 175 950 217 940 l 485 1019 q 349 528 457 922 q 496 665 410 607 z "},"i":{"ha":368,"x_min":-21,"x_max":454,"o":"m 82 654 l 393 724 l 210 61 q 269 76 251 61 l 275 56 q 260 40 269 49 q 219 16 251 31 q 149 1 186 1 l 65 1 q 1 31 22 1 q -8 103 -21 60 l 118 563 q 130 628 135 613 q 82 654 125 643 m 249 983 q 272 1001 249 983 q 348 1019 296 1019 q 427 983 400 1019 q 440 893 454 946 q 378 803 425 840 q 278 767 331 767 q 199 803 225 767 q 187 893 172 840 q 249 983 201 946 z "},"ì":{"ha":368,"x_min":-21,"x_max":454,"o":"m 82 654 l 393 724 l 210 61 q 269 76 251 61 l 275 56 q 260 40 269 49 q 219 16 251 31 q 149 1 186 1 l 65 1 q 1 31 22 1 q -8 103 -21 60 l 118 563 q 130 628 135 613 q 82 654 125 643 m 249 983 q 272 1001 249 983 q 348 1019 296 1019 q 427 983 400 1019 q 440 893 454 946 q 378 803 425 840 q 278 767 331 767 q 199 803 225 767 q 187 893 172 840 q 249 983 201 946 z "},"í":{"ha":368,"x_min":-21,"x_max":454,"o":"m 82 654 l 393 724 l 210 61 q 269 76 251 61 l 275 56 q 260 40 269 49 q 219 16 251 31 q 149 1 186 1 l 65 1 q 1 31 22 1 q -8 103 -21 60 l 118 563 q 130 628 135 613 q 82 654 125 643 m 249 983 q 272 1001 249 983 q 348 1019 296 1019 q 427 983 400 1019 q 440 893 454 946 q 378 803 425 840 q 278 767 331 767 q 199 803 225 767 q 187 893 172 840 q 249 983 201 946 z "},"î":{"ha":368,"x_min":-21,"x_max":454,"o":"m 82 654 l 393 724 l 210 61 q 269 76 251 61 l 275 56 q 260 40 269 49 q 219 16 251 31 q 149 1 186 1 l 65 1 q 1 31 22 1 q -8 103 -21 60 l 118 563 q 130 628 135 613 q 82 654 125 643 m 249 983 q 272 1001 249 983 q 348 1019 296 1019 q 427 983 400 1019 q 440 893 454 946 q 378 803 425 840 q 278 767 331 767 q 199 803 225 767 q 187 893 172 840 q 249 983 201 946 z "},"ï":{"ha":368,"x_min":-21,"x_max":454,"o":"m 82 654 l 393 724 l 210 61 q 269 76 251 61 l 275 56 q 260 40 269 49 q 219 16 251 31 q 149 1 186 1 l 65 1 q 1 31 22 1 q -8 103 -21 60 l 118 563 q 130 628 135 613 q 82 654 125 643 m 249 983 q 272 1001 249 983 q 348 1019 296 1019 q 427 983 400 1019 q 440 893 454 946 q 378 803 425 840 q 278 767 331 767 q 199 803 225 767 q 187 893 172 840 q 249 983 201 946 z "},"j":{"ha":346,"x_min":-199,"x_max":461,"o":"m 125 563 q 99 654 149 650 q 89 654 90 654 l 399 724 q 199 1 278 283 q 153 -105 183 -57 q 86 -182 122 -153 q 10 -234 50 -211 q -66 -268 -29 -257 q -133 -286 -103 -279 q -181 -294 -162 -293 l -197 -296 q -140 -260 -168 -292 q -92 -186 -111 -229 q -59 -101 -74 -143 q -37 -29 -44 -58 l -31 1 q 125 563 96 461 m 254 983 q 278 1001 254 983 q 354 1019 301 1019 q 433 983 407 1019 q 445 893 460 946 q 383 803 431 840 q 284 767 336 767 q 205 803 232 767 q 192 893 178 840 q 254 983 207 946 z "},"k":{"ha":824,"x_min":-103,"x_max":899,"o":"m 667 29 q 747 47 693 17 q 717 21 739 38 q 644 -15 696 4 q 535 -33 592 -33 q 501 -29 517 -33 q 473 -17 485 -25 q 452 -1 461 -10 q 438 17 443 8 q 428 33 432 25 q 422 44 424 40 l 419 50 l 311 322 l 307 332 q 468 493 382 408 q 536 590 507 531 q 576 690 565 650 l 586 732 l 897 732 q 747 669 849 732 q 568 544 646 607 l 492 483 q 667 29 629 47 m 240 136 q 238 56 226 86 q 263 13 250 26 q 279 0 275 0 l -101 0 q -92 5 -99 1 q -70 19 -86 8 q -41 44 -54 31 q -12 83 -28 58 q 11 136 3 107 q 210 860 106 479 q 222 924 226 908 q 175 950 217 940 l 485 1019 q 357 557 454 911 q 240 136 260 203 z "},"l":{"ha":349,"x_min":-40,"x_max":456,"o":"m 190 61 q 250 76 232 61 l 256 56 q 241 40 250 49 q 199 15 232 31 q 129 0 167 0 l 46 0 q -19 30 3 0 q -28 103 -40 60 l 181 860 q 192 924 197 908 q 144 950 188 940 l 454 1019 l 190 61 z "},"m":{"ha":1221,"x_min":-100,"x_max":1217,"o":"m 865 665 q 996 730 928 711 q 1117 734 1064 749 q 1192 665 1169 719 q 1188 510 1215 611 l 1064 61 q 1124 76 1106 61 l 1129 56 q 1115 40 1124 49 q 1073 16 1106 31 q 1003 1 1040 1 l 919 1 q 856 31 878 1 q 846 103 833 60 l 953 490 q 896 622 989 622 q 764 488 821 622 q 706 279 742 407 q 667 138 671 151 q 664 57 656 88 q 689 14 672 26 l 704 1 l 324 1 q 333 6 328 3 q 355 20 339 8 q 385 46 371 32 q 414 84 399 60 q 436 138 429 108 q 535 490 456 204 q 478 624 571 624 q 397 578 432 624 q 336 472 361 533 q 292 309 325 431 q 243 136 258 188 q 241 56 232 86 q 265 14 250 26 l 282 1 l -99 1 q -90 6 -96 3 q -67 19 -83 8 q -38 44 -51 31 q -10 83 -25 58 q 14 136 6 107 q 136 579 64 317 q 147 644 151 628 q 100 669 143 660 l 410 739 q 371 596 388 658 q 447 667 404 636 q 565 724 504 706 q 676 738 626 743 q 757 694 726 733 q 783 586 788 656 q 865 665 818 632 z "},"n":{"ha":853,"x_min":-100,"x_max":849,"o":"m 499 665 q 631 728 563 710 q 751 732 699 746 q 826 665 804 718 q 821 510 849 611 l 697 61 q 757 78 739 61 l 761 56 q 747 40 757 49 q 705 16 738 31 q 636 1 672 1 l 553 1 q 488 31 510 1 q 479 103 467 60 l 586 490 q 529 624 622 624 q 402 546 469 624 q 322 421 335 468 q 243 136 317 401 q 241 56 232 86 q 265 14 250 26 l 282 1 l -99 1 q -90 6 -96 3 q -67 19 -83 8 q -38 44 -51 31 q -10 83 -25 58 q 14 136 6 108 q 136 579 64 317 q 147 644 151 628 q 100 669 143 660 l 410 739 q 384 646 404 719 q 351 528 364 572 q 499 665 413 607 z "},"ñ":{"ha":853,"x_min":-100,"x_max":849,"o":"m 499 665 q 631 728 563 710 q 751 732 699 746 q 826 665 804 718 q 821 510 849 611 l 697 61 q 757 78 739 61 l 761 56 q 747 40 757 49 q 705 16 738 31 q 636 1 672 1 l 553 1 q 488 31 510 1 q 479 103 467 60 l 586 490 q 529 624 622 624 q 402 546 469 624 q 322 421 335 468 q 243 136 317 401 q 241 56 232 86 q 265 14 250 26 l 282 1 l -99 1 q -90 6 -96 3 q -67 19 -83 8 q -38 44 -51 31 q -10 83 -25 58 q 14 136 6 108 q 136 579 64 317 q 147 644 151 628 q 100 669 143 660 l 410 739 q 384 646 404 719 q 351 528 364 572 q 499 665 413 607 z "},"o":{"ha":829,"x_min":-35,"x_max":858,"o":"m 194 644 q 255 691 194 644 q 517 738 315 738 q 789 644 719 738 q 805 358 858 551 q 631 72 751 165 q 308 -21 510 -21 q 36 72 106 -21 q 19 358 -33 165 q 194 644 72 551 m 574 358 q 606 617 622 532 q 507 701 590 701 q 361 617 424 701 q 251 358 299 533 q 219 101 203 185 q 318 17 235 17 q 463 101 401 17 q 574 358 525 185 z "},"ò":{"ha":829,"x_min":-35,"x_max":858,"o":"m 194 644 q 255 691 194 644 q 517 738 315 738 q 789 644 719 738 q 805 358 858 551 q 631 72 751 165 q 308 -21 510 -21 q 36 72 106 -21 q 19 358 -33 165 q 194 644 72 551 m 574 358 q 606 617 622 532 q 507 701 590 701 q 361 617 424 701 q 251 358 299 533 q 219 101 203 185 q 318 17 235 17 q 463 101 401 17 q 574 358 525 185 z "},"ó":{"ha":829,"x_min":-35,"x_max":858,"o":"m 194 644 q 255 691 194 644 q 517 738 315 738 q 789 644 719 738 q 805 358 858 551 q 631 72 751 165 q 308 -21 510 -21 q 36 72 106 -21 q 19 358 -33 165 q 194 644 72 551 m 574 358 q 606 617 622 532 q 507 701 590 701 q 361 617 424 701 q 251 358 299 533 q 219 101 203 185 q 318 17 235 17 q 463 101 401 17 q 574 358 525 185 z "},"ô":{"ha":829,"x_min":-35,"x_max":858,"o":"m 194 644 q 255 691 194 644 q 517 738 315 738 q 789 644 719 738 q 805 358 858 551 q 631 72 751 165 q 308 -21 510 -21 q 36 72 106 -21 q 19 358 -33 165 q 194 644 72 551 m 574 358 q 606 617 622 532 q 507 701 590 701 q 361 617 424 701 q 251 358 299 533 q 219 101 203 185 q 318 17 235 17 q 463 101 401 17 q 574 358 525 185 z "},"õ":{"ha":829,"x_min":-35,"x_max":858,"o":"m 194 644 q 255 691 194 644 q 517 738 315 738 q 789 644 719 738 q 805 358 858 551 q 631 72 751 165 q 308 -21 510 -21 q 36 72 106 -21 q 19 358 -33 165 q 194 644 72 551 m 574 358 q 606 617 622 532 q 507 701 590 701 q 361 617 424 701 q 251 358 299 533 q 219 101 203 185 q 318 17 235 17 q 463 101 401 17 q 574 358 525 185 z "},"ö":{"ha":829,"x_min":-35,"x_max":858,"o":"m 194 644 q 255 691 194 644 q 517 738 315 738 q 789 644 719 738 q 805 358 858 551 q 631 72 751 165 q 308 -21 510 -21 q 36 72 106 -21 q 19 358 -33 165 q 194 644 72 551 m 574 358 q 606 617 622 532 q 507 701 590 701 q 361 617 424 701 q 251 358 299 533 q 219 101 203 185 q 318 17 235 17 q 463 101 401 17 q 574 358 525 185 z "},"ø":{"ha":829,"x_min":-35,"x_max":858,"o":"m 194 644 q 255 691 194 644 q 517 738 315 738 q 789 644 719 738 q 805 358 858 551 q 631 72 751 165 q 308 -21 510 -21 q 36 72 106 -21 q 19 358 -33 165 q 194 644 72 551 m 574 358 q 606 617 622 532 q 507 701 590 701 q 361 617 424 701 q 251 358 299 533 q 219 101 203 185 q 318 17 235 17 q 463 101 401 17 q 574 358 525 185 z "},"p":{"ha":760,"x_min":-183,"x_max":758,"o":"m 569 736 q 632 725 601 736 q 692 686 663 714 q 740 617 722 658 q 758 508 758 575 q 735 356 758 440 q 673 206 713 272 q 590 100 633 140 q 498 34 547 60 q 408 -1 449 8 q 329 -11 367 -11 q 213 49 247 -11 q 185 -54 203 10 q 160 -143 167 -118 q 158 -224 149 -193 q 182 -267 167 -254 l 197 -279 l -182 -279 q -174 -275 -179 -278 q -151 -260 -168 -272 q -122 -235 -135 -249 q -93 -197 -108 -221 q -69 -143 -78 -172 q 31 222 -43 -44 q 129 581 104 488 q 141 645 146 629 q 94 671 136 661 l 404 740 q 388 681 399 724 q 369 614 376 639 q 569 736 447 740 m 493 324 q 508 369 497 335 q 526 433 518 404 q 544 503 535 463 q 557 575 554 544 q 558 634 560 606 q 542 678 556 663 q 503 694 528 694 q 444 674 472 694 q 394 618 415 653 q 360 556 372 583 q 338 500 347 528 q 286 313 321 440 q 233 124 251 186 q 235 98 233 111 q 249 70 236 85 q 288 56 263 56 q 377 107 331 56 q 452 217 424 158 q 493 324 481 276 z "},"q":{"ha":735,"x_min":-10,"x_max":790,"o":"m 546 -143 q 579 -275 522 -233 q 585 -279 583 -279 l 204 -279 q 213 -275 207 -278 q 235 -260 219 -272 q 265 -235 251 -249 q 294 -197 279 -221 q 317 -143 308 -172 l 369 49 q 221 -11 303 -11 q 148 -1 183 -11 q 76 34 113 10 q 21 101 40 58 q -3 206 1 143 q 17 357 -8 269 q 78 508 40 440 q 156 617 115 575 q 241 686 196 658 q 324 725 286 714 q 393 736 361 736 q 485 709 449 738 q 525 614 521 681 q 588 703 540 667 q 686 739 635 739 l 790 739 q 546 -143 664 283 m 299 56 q 390 124 357 56 l 494 500 q 502 556 500 528 q 503 617 504 583 q 484 673 501 651 q 436 694 467 694 q 381 672 407 694 q 337 618 354 649 q 301 539 319 588 q 274 458 283 490 q 254 379 265 425 q 240 324 243 333 q 228 247 232 290 q 226 160 224 204 q 247 85 228 115 q 299 56 265 56 z "},"r":{"ha":676,"x_min":-100,"x_max":743,"o":"m 428 665 q 549 733 486 715 q 657 733 613 751 q 722 659 701 714 q 715 508 742 604 l 494 414 l 515 490 q 526 536 522 513 q 529 591 529 560 q 513 637 529 622 q 464 642 497 651 q 331 450 378 617 q 285 288 315 396 q 243 135 256 181 q 241 56 232 86 q 265 14 250 26 l 282 1 l -99 1 q -90 6 -96 3 q -67 19 -83 8 q -38 44 -51 31 q -10 83 -25 58 q 14 136 6 107 q 136 579 51 276 q 147 644 151 628 q 100 669 143 660 l 410 739 q 390 667 403 715 q 372 601 376 618 q 428 665 399 640 z "},"s":{"ha":621,"x_min":-72,"x_max":665,"o":"m 368 714 q 288 683 313 714 q 282 606 264 653 q 358 514 300 558 q 516 347 461 436 q 547 171 571 258 q 420 31 522 82 q 188 -19 318 -19 q 49 -4 114 -19 q -43 26 -15 11 l -72 42 l 56 275 q 58 249 57 265 q 69 191 60 233 q 92 116 78 149 q 133 54 106 83 q 194 19 160 25 q 274 29 236 14 q 333 74 311 44 q 360 140 354 104 q 347 215 367 175 q 281 288 326 256 q 110 433 154 374 q 86 564 67 492 q 186 690 108 642 q 378 739 264 739 q 536 730 464 739 q 636 711 608 721 l 665 701 l 568 475 q 558 501 565 485 q 531 558 551 517 q 488 630 510 599 q 433 688 465 661 q 368 714 400 714 z "},"t":{"ha":436,"x_min":19,"x_max":533,"o":"m 524 700 l 426 700 l 250 61 q 310 76 292 61 l 315 56 q 301 40 310 49 q 259 15 292 31 q 189 0 226 0 l 106 0 q 41 30 63 0 q 32 103 19 60 l 175 624 q 158 700 188 669 l 83 700 l 92 729 l 224 729 q 313 773 268 743 q 389 834 357 803 q 447 894 421 865 q 486 943 472 924 l 499 961 l 435 729 l 532 729 l 524 700 z "},"u":{"ha":794,"x_min":-7,"x_max":824,"o":"m 760 510 l 636 61 q 696 76 678 61 l 700 56 q 686 40 696 49 q 644 16 676 31 q 575 1 611 1 l 497 1 q 429 33 453 1 q 418 110 406 65 l 433 163 q 344 75 393 110 q 213 10 281 29 q 92 6 144 -8 q 17 75 39 21 q 21 229 -6 129 q 131 622 81 444 q 123 650 135 639 q 97 665 111 661 l 83 669 l 393 739 q 364 638 379 693 l 257 250 q 313 117 219 117 q 381 147 347 117 q 433 212 414 178 q 467 285 451 246 l 549 579 q 559 644 564 631 q 513 669 554 658 l 822 739 l 760 510 z "},"ù":{"ha":794,"x_min":-7,"x_max":824,"o":"m 760 510 l 636 61 q 696 76 678 61 l 700 56 q 686 40 696 49 q 644 16 676 31 q 575 1 611 1 l 497 1 q 429 33 453 1 q 418 110 406 65 l 433 163 q 344 75 393 110 q 213 10 281 29 q 92 6 144 -8 q 17 75 39 21 q 21 229 -6 129 q 131 622 81 444 q 123 650 135 639 q 97 665 111 661 l 83 669 l 393 739 q 364 638 379 693 l 257 250 q 313 117 219 117 q 381 147 347 117 q 433 212 414 178 q 467 285 451 246 l 549 579 q 559 644 564 631 q 513 669 554 658 l 822 739 l 760 510 z "},"ú":{"ha":794,"x_min":-7,"x_max":824,"o":"m 760 510 l 636 61 q 696 76 678 61 l 700 56 q 686 40 696 49 q 644 16 676 31 q 575 1 611 1 l 497 1 q 429 33 453 1 q 418 110 406 65 l 433 163 q 344 75 393 110 q 213 10 281 29 q 92 6 144 -8 q 17 75 39 21 q 21 229 -6 129 q 131 622 81 444 q 123 650 135 639 q 97 665 111 661 l 83 669 l 393 739 q 364 638 379 693 l 257 250 q 313 117 219 117 q 381 147 347 117 q 433 212 414 178 q 467 285 451 246 l 549 579 q 559 644 564 631 q 513 669 554 658 l 822 739 l 760 510 z "},"û":{"ha":794,"x_min":-7,"x_max":824,"o":"m 760 510 l 636 61 q 696 76 678 61 l 700 56 q 686 40 696 49 q 644 16 676 31 q 575 1 611 1 l 497 1 q 429 33 453 1 q 418 110 406 65 l 433 163 q 344 75 393 110 q 213 10 281 29 q 92 6 144 -8 q 17 75 39 21 q 21 229 -6 129 q 131 622 81 444 q 123 650 135 639 q 97 665 111 661 l 83 669 l 393 739 q 364 638 379 693 l 257 250 q 313 117 219 117 q 381 147 347 117 q 433 212 414 178 q 467 285 451 246 l 549 579 q 559 644 564 631 q 513 669 554 658 l 822 739 l 760 510 z "},"ü":{"ha":794,"x_min":-7,"x_max":824,"o":"m 760 510 l 636 61 q 696 76 678 61 l 700 56 q 686 40 696 49 q 644 16 676 31 q 575 1 611 1 l 497 1 q 429 33 453 1 q 418 110 406 65 l 433 163 q 344 75 393 110 q 213 10 281 29 q 92 6 144 -8 q 17 75 39 21 q 21 229 -6 129 q 131 622 81 444 q 123 650 135 639 q 97 665 111 661 l 83 669 l 393 739 q 364 638 379 693 l 257 250 q 313 117 219 117 q 381 147 347 117 q 433 212 414 178 q 467 285 451 246 l 549 579 q 559 644 564 631 q 513 669 554 658 l 822 739 l 760 510 z "},"v":{"ha":828,"x_min":86,"x_max":950,"o":"m 610 739 l 949 739 q 940 733 946 738 q 633 418 757 606 l 426 124 l 344 -1 l 183 -1 q 189 72 186 25 q 188 242 192 118 q 166 467 183 365 q 129 636 149 568 q 99 721 110 704 l 86 739 l 472 739 q 424 713 443 739 q 398 651 404 686 q 389 583 392 617 q 392 538 386 550 q 392 486 392 532 q 398 352 392 440 q 421 161 404 264 l 588 406 q 607 436 596 418 q 625 464 618 454 q 642 490 632 474 q 656 514 651 506 q 667 537 660 522 q 678 558 675 551 q 685 580 681 565 q 690 601 690 594 q 692 623 690 608 q 690 646 694 638 q 610 739 679 739 z "},"w":{"ha":1258,"x_min":86,"x_max":1381,"o":"m 1040 739 l 1379 739 q 1372 733 1376 738 q 1064 418 1188 606 l 858 124 l 775 -1 l 614 -1 q 610 385 632 186 l 426 124 l 344 -1 l 183 -1 q 189 72 186 25 q 188 242 192 118 q 166 467 183 365 q 129 636 149 568 q 99 721 110 704 l 86 739 l 472 739 q 424 713 443 739 q 398 651 404 686 q 389 583 392 617 q 392 538 386 550 q 392 486 392 532 q 398 352 392 440 q 421 163 404 264 l 588 406 q 603 431 592 411 q 597 467 600 451 q 560 636 581 568 q 529 721 540 704 l 518 739 l 903 739 q 828 643 847 739 q 822 538 814 578 q 823 486 824 532 q 829 352 822 440 q 851 161 836 264 l 1019 406 q 1038 436 1026 418 q 1056 464 1050 454 q 1072 490 1063 474 q 1087 514 1082 506 q 1099 537 1092 522 q 1109 558 1107 551 q 1117 580 1111 565 q 1122 601 1122 594 q 1123 623 1121 608 q 1122 644 1125 638 q 1040 739 1110 739 z "},"x":{"ha":782,"x_min":-112,"x_max":899,"o":"m 586 96 q 605 58 593 76 q 628 30 617 40 q 649 12 639 19 q 667 1 660 4 q 674 -1 674 -1 l 336 -1 q 340 2 338 0 q 350 12 343 4 q 360 30 357 19 q 364 58 364 40 q 358 96 364 76 l 293 293 q 153 168 196 206 q 125 128 138 156 q 108 71 113 100 q 119 20 104 42 q 171 -1 135 -1 l -111 -1 q 140 182 64 114 q 288 311 156 196 l 179 640 q 147 698 168 674 q 108 731 125 722 l 93 739 l 431 739 q 426 735 429 738 q 416 726 422 733 q 406 708 410 718 q 401 679 401 697 q 408 640 401 661 l 476 431 q 633 568 529 476 q 661 610 649 582 q 678 667 674 638 q 667 717 682 696 q 615 739 651 739 l 899 739 q 646 556 724 624 q 583 500 621 533 q 519 444 546 467 q 483 413 493 421 l 586 96 z "},"y":{"ha":835,"x_min":-104,"x_max":957,"o":"m 617 739 l 957 739 q 689 468 797 643 q 687 465 688 467 q 685 464 686 464 q 157 -257 328 -132 q 73 -295 115 -287 q 2 -296 31 -303 q -53 -271 -26 -289 q -90 -244 -81 -253 q -104 -228 -99 -235 l 44 -112 q 46 -112 44 -112 q 58 -134 51 -124 q 83 -165 64 -144 q 122 -195 103 -186 q 167 -199 140 -204 q 219 -165 194 -193 q 349 -1 276 -103 l 192 -1 q 192 27 192 7 q 194 126 193 47 q 192 315 194 204 q 166 528 190 422 q 118 686 142 635 l 94 739 l 479 739 q 428 708 449 738 q 404 649 408 678 l 400 621 q 408 317 408 447 q 417 94 410 150 q 661 476 528 257 q 699 608 685 531 q 697 663 704 638 q 678 701 690 688 q 651 724 665 714 q 628 736 638 733 l 617 739 z "},"ý":{"ha":835,"x_min":-104,"x_max":957,"o":"m 617 739 l 957 739 q 689 468 797 643 q 687 465 688 467 q 685 464 686 464 q 157 -257 328 -132 q 73 -295 115 -287 q 2 -296 31 -303 q -53 -271 -26 -289 q -90 -244 -81 -253 q -104 -228 -99 -235 l 44 -112 q 46 -112 44 -112 q 58 -134 51 -124 q 83 -165 64 -144 q 122 -195 103 -186 q 167 -199 140 -204 q 219 -165 194 -193 q 349 -1 276 -103 l 192 -1 q 192 27 192 7 q 194 126 193 47 q 192 315 194 204 q 166 528 190 422 q 118 686 142 635 l 94 739 l 479 739 q 428 708 449 738 q 404 649 408 678 l 400 621 q 408 317 408 447 q 417 94 410 150 q 661 476 528 257 q 699 608 685 531 q 697 663 704 638 q 678 701 690 688 q 651 724 665 714 q 628 736 638 733 l 617 739 z "},"ÿ":{"ha":835,"x_min":-104,"x_max":957,"o":"m 617 739 l 957 739 q 689 468 797 643 q 687 465 688 467 q 685 464 686 464 q 157 -257 328 -132 q 73 -295 115 -287 q 2 -296 31 -303 q -53 -271 -26 -289 q -90 -244 -81 -253 q -104 -228 -99 -235 l 44 -112 q 46 -112 44 -112 q 58 -134 51 -124 q 83 -165 64 -144 q 122 -195 103 -186 q 167 -199 140 -204 q 219 -165 194 -193 q 349 -1 276 -103 l 192 -1 q 192 27 192 7 q 194 126 193 47 q 192 315 194 204 q 166 528 190 422 q 118 686 142 635 l 94 739 l 479 739 q 428 708 449 738 q 404 649 408 678 l 400 621 q 408 317 408 447 q 417 94 410 150 q 661 476 528 257 q 699 608 685 531 q 697 663 704 638 q 678 701 690 688 q 651 724 665 714 q 628 736 638 733 l 617 739 z "},"z":{"ha":688,"x_min":-82,"x_max":761,"o":"m 753 692 l 265 133 q 210 28 208 69 l 249 28 q 335 38 293 28 q 412 65 378 47 q 477 104 446 82 q 532 151 508 126 q 576 201 556 176 q 610 248 596 225 q 634 288 624 271 q 649 315 644 304 l 653 325 l 533 -1 l 221 -1 l -76 -1 l -81 -1 l -74 28 l -72 28 q -1 133 -57 69 l 490 692 q 345 661 417 690 q 224 592 274 632 q 134 512 174 551 q 75 444 94 472 l 56 417 l 133 721 l 760 721 l 753 692 z "},"{":{"ha":664,"x_min":36,"x_max":594,"o":"m 426 1000 q 589 954 551 1015 l 593 946 l 567 917 q 559 924 565 919 q 530 935 553 928 q 479 940 507 942 q 414 898 435 939 q 360 738 393 857 q 357 728 358 732 q 301 582 338 656 q 215 476 264 508 q 241 405 238 454 q 238 312 244 356 q 218 224 231 268 q 215 214 217 221 q 191 122 197 150 q 182 63 185 94 q 189 22 179 32 q 222 11 199 11 q 276 16 250 10 q 313 28 301 22 l 324 35 l 333 6 q 326 -2 331 3 q 303 -19 321 -7 q 264 -37 285 -31 q 209 -49 243 -43 q 138 -49 175 -56 q 83 -22 104 -43 q 58 25 63 -1 q 53 77 53 51 q 57 121 53 103 l 61 139 q 125 372 111 317 q 110 415 132 396 q 61 442 88 435 l 36 449 l 39 457 l 49 494 l 51 504 q 65 506 57 504 q 93 515 72 508 q 131 529 114 521 q 163 551 147 538 q 183 579 178 564 l 247 814 q 253 831 250 819 q 273 874 257 843 q 307 928 289 904 q 358 973 325 951 q 426 1000 390 994 z "},"|":{"ha":228,"x_min":-146,"x_max":342,"o":"m 218 1107 l 340 1107 l -22 -208 l -146 -208 l 218 1107 z "},"}":{"ha":664,"x_min":69,"x_max":628,"o":"m 538 579 q 544 547 533 563 q 574 523 554 532 q 606 510 594 514 q 626 504 617 506 q 626 503 626 503 l 624 494 l 614 457 l 611 447 q 599 445 607 447 q 570 437 590 443 q 533 422 550 431 q 501 400 517 414 q 481 371 485 386 l 415 138 q 410 119 414 131 q 390 78 406 108 q 356 24 375 47 q 305 -22 338 0 q 236 -49 272 -43 q 163 -49 193 -53 q 115 -37 133 -46 q 87 -19 97 -28 q 74 -3 76 -10 l 69 6 l 96 35 q 104 28 99 32 q 133 17 110 24 q 183 11 156 10 q 249 53 228 13 q 303 214 269 94 q 306 224 304 219 q 362 369 325 296 q 447 475 399 443 q 422 547 426 497 q 425 640 418 596 q 444 728 432 683 q 447 738 446 731 q 472 829 465 801 q 481 888 478 857 q 474 930 483 919 q 440 940 464 940 q 387 935 413 942 q 350 924 361 929 l 339 917 l 329 946 q 337 953 332 949 q 360 970 342 958 q 399 988 378 982 q 453 1001 419 994 q 525 1000 488 1007 q 580 974 560 994 q 605 926 600 953 q 610 874 610 900 q 606 831 610 849 l 601 813 q 538 579 551 635 z "},"~":{"ha":633,"x_min":33,"x_max":599,"o":"m 436 375 q 514 382 474 365 q 576 418 554 399 l 599 439 q 589 422 594 432 q 564 386 583 413 q 524 340 544 360 q 472 303 504 319 q 410 286 440 286 q 338 297 367 286 q 295 322 308 308 q 260 351 282 335 q 213 376 239 368 q 135 377 181 388 q 63 350 90 367 l 33 335 q 45 349 38 340 q 76 381 53 358 q 124 422 100 404 q 183 453 149 439 q 247 468 217 468 q 313 456 286 468 q 354 428 340 443 q 390 397 368 413 q 436 375 411 381 z "}," ":{"ha":475,"x_min":0,"x_max":0,"o":""},"¡":{"ha":282,"x_min":-125,"x_max":294,"o":"m 134 737 q 152 751 134 737 q 212 765 171 765 q 274 737 253 765 q 283 667 294 708 q 235 597 272 626 q 158 568 199 568 q 96 597 117 568 q 86 667 75 626 q 134 737 97 708 m 136 492 q 165 417 163 492 q 151 235 168 343 q 106 22 133 126 q 19 -192 64 -125 q -71 -260 -26 -260 q -99 -251 -87 -260 q -118 -220 -111 -242 q -125 -167 -125 -199 q -117 -87 -125 -135 q -92 22 -108 -39 q 26 340 -46 188 q 136 492 97 492 z "},"¢":{"ha":683,"x_min":-29,"x_max":635,"o":"m 621 415 l 404 413 q 436 533 425 471 l 247 158 q 324 122 276 122 q 458 150 394 122 q 560 235 522 178 q 549 207 557 225 q 512 144 542 189 q 446 66 482 100 q 346 3 410 32 q 210 -25 282 -25 q 158 -21 185 -25 l 111 -114 l 69 -104 l 115 -11 q 22 49 57 7 q -21 147 -12 90 q -24 258 -29 203 q -3 372 -19 314 q 162 608 32 499 q 410 717 292 717 q 476 710 443 717 l 532 821 l 575 811 l 518 699 q 594 644 567 681 q 628 570 622 608 q 633 497 635 532 q 626 439 632 461 l 621 415 m 244 440 q 225 207 204 290 l 439 633 q 388 679 428 679 q 378 677 383 679 q 356 662 372 675 q 322 626 339 649 q 284 554 306 603 q 244 440 263 506 z "},"£":{"ha":1044,"x_min":61,"x_max":1118,"o":"m 458 357 q 360 157 415 244 q 265 38 306 69 q 312 39 282 38 q 427 56 342 40 q 592 97 513 71 q 774 183 672 124 q 953 322 875 242 l 857 -25 l 63 -25 l 71 7 q 78 10 74 7 q 99 36 83 14 q 131 92 114 58 q 176 195 149 125 q 232 357 203 265 l 76 357 l 89 404 l 246 404 q 265 474 256 439 q 758 1001 411 1001 q 915 992 846 1001 q 1021 970 985 983 q 1081 944 1057 957 q 1110 921 1104 931 l 1117 911 l 826 594 q 830 616 828 603 q 836 669 832 629 q 842 744 840 708 q 841 823 844 779 q 827 898 838 867 q 795 951 817 929 q 742 972 774 972 q 681 956 708 972 q 633 908 654 940 q 597 840 613 876 q 566 753 581 804 q 542 659 551 701 q 518 559 532 617 q 494 465 504 501 q 475 404 488 442 l 644 404 l 632 357 l 458 357 z "},"¤":{"ha":457,"x_min":-47,"x_max":429,"o":"m 428 536 l 358 482 q 366 375 382 433 q 300 269 350 317 l 340 215 l 297 182 l 258 236 q 142 200 200 200 q 46 236 85 200 l -24 182 l -47 215 l 22 269 q 15 375 -1 317 q 81 482 32 433 l 42 536 l 83 569 l 124 514 q 239 549 179 549 q 335 514 299 549 l 404 569 l 428 536 m 257 285 q 319 376 304 322 q 307 467 335 429 q 226 504 279 504 q 124 467 172 504 q 62 376 76 429 q 74 285 47 322 q 156 247 101 247 q 257 285 210 247 z "},"¥":{"ha":1153,"x_min":63,"x_max":1092,"o":"m 1090 1001 q 1028 960 1067 986 q 899 862 990 933 q 747 731 807 790 q 564 524 669 650 l 524 376 l 682 376 l 669 331 l 510 331 l 481 224 l 640 224 l 626 178 l 468 178 l 450 113 q 447 33 439 63 q 472 -10 456 3 l 488 -22 l 108 -22 q 117 -18 111 -21 q 140 -4 124 -15 q 169 21 156 7 q 198 60 183 35 q 221 113 213 85 l 239 178 l 72 178 l 85 224 l 251 224 l 281 331 l 114 331 l 126 376 l 293 376 l 311 443 l 182 865 q 157 919 172 894 q 126 958 142 943 q 95 983 110 972 q 72 997 81 993 l 63 1001 l 481 1001 q 474 997 478 1000 q 460 983 469 994 q 446 957 451 971 q 440 919 440 943 q 450 865 440 894 l 549 544 q 728 746 663 671 q 792 856 774 797 q 789 958 811 915 q 700 1001 767 1001 l 1090 1001 z "},"§":{"ha":713,"x_min":-151,"x_max":758,"o":"m 460 922 q 380 892 404 922 q 374 814 356 861 q 450 722 392 767 q 608 556 553 644 q 639 381 664 467 q 563 271 622 315 q 417 206 503 226 q 468 1 494 97 q 341 -139 443 -89 q 108 -189 239 -189 q -30 -174 35 -189 q -124 -144 -94 -160 l -151 -129 l -24 106 q -22 79 -24 96 q -10 21 -19 63 q 12 -54 -1 -21 q 53 -117 25 -87 q 115 -151 81 -146 q 194 -142 157 -157 q 253 -97 232 -126 q 281 -31 275 -67 q 267 45 288 6 q 200 117 247 85 q 31 263 75 203 q 7 394 -12 322 q 99 515 28 467 q 275 567 169 563 q 185 669 208 622 q 178 774 163 717 q 278 899 200 850 q 469 947 356 947 q 628 938 557 947 q 729 919 700 929 l 757 911 l 660 683 q 650 709 657 693 q 622 766 643 725 q 579 839 601 807 q 524 897 557 871 q 460 922 492 922 m 372 496 q 310 540 339 518 q 289 543 299 543 q 208 513 233 543 q 202 435 183 482 q 279 343 221 388 q 383 247 338 299 q 444 313 425 271 q 446 406 463 356 q 372 496 429 457 z "},"¨":{"ha":464,"x_min":31,"x_max":433,"o":"m 74 855 q 88 866 74 855 q 131 876 101 876 q 176 855 161 876 q 183 803 192 833 q 148 753 175 774 q 91 732 121 732 q 46 753 61 732 q 39 803 31 774 q 74 855 47 833 m 315 855 q 328 866 315 855 q 372 876 342 876 q 417 855 401 876 q 425 803 433 833 q 390 753 417 774 q 333 732 363 732 q 288 753 303 732 q 280 803 272 774 q 315 855 288 833 z "},"©":{"ha":869,"x_min":3,"x_max":856,"o":"m 518 778 q 692 639 681 778 q 682 543 696 588 l 514 542 q 535 621 514 542 q 500 750 563 750 q 493 748 497 750 q 476 735 489 746 q 450 707 463 725 q 420 651 438 689 q 389 563 403 614 q 368 419 364 474 q 394 340 372 364 q 451 315 415 315 q 556 337 506 315 q 635 403 606 358 q 626 381 632 394 q 597 333 621 368 q 546 271 574 297 q 468 222 518 244 q 361 200 418 200 q 263 220 303 200 q 205 272 224 240 q 181 345 186 303 q 180 428 175 388 q 196 511 185 468 q 325 693 224 608 q 518 778 426 778 m 540 890 q 687 859 621 890 q 791 773 753 828 q 842 645 829 718 q 831 489 856 572 q 635 206 785 324 q 318 88 485 88 q 170 119 236 88 q 67 206 104 151 q 16 333 29 260 q 28 489 3 406 q 224 773 74 656 q 540 890 374 890 m 610 238 q 677 290 610 238 q 784 489 743 342 q 749 740 825 636 q 527 844 674 844 q 247 740 381 844 q 74 489 114 636 q 108 238 33 342 q 331 133 183 133 q 610 238 478 133 z "},"«":{"ha":486,"x_min":-25,"x_max":438,"o":"m 235 444 l 10 374 l 196 304 l 132 176 l -24 349 l -10 399 l 240 572 l 235 444 m 438 572 l 432 444 l 206 374 l 393 304 l 328 176 l 172 349 l 186 399 l 438 572 z "},"­":{"ha":0,"x_min":0,"x_max":0,"o":""},"®":{"ha":629,"x_min":38,"x_max":696,"o":"m 204 540 q 240 585 231 551 l 228 540 l 204 540 m 313 585 q 311 567 311 574 q 313 555 311 560 q 318 547 315 550 q 323 542 321 544 q 325 540 325 540 l 301 540 l 313 585 m 306 824 q 307 850 310 840 q 299 863 304 860 l 294 867 l 318 867 l 306 824 m 392 867 q 408 868 397 868 q 442 865 418 868 q 484 853 467 861 q 512 823 501 844 q 513 769 522 801 q 428 685 496 707 q 468 560 461 558 l 488 568 l 490 563 q 421 540 450 540 q 392 551 400 540 q 375 590 385 561 q 357 672 368 614 l 338 672 l 301 540 l 228 540 l 318 867 l 392 867 m 446 775 q 450 820 453 803 q 438 846 447 838 q 417 857 428 854 q 397 858 406 860 l 389 858 l 340 682 q 349 682 343 682 q 369 687 354 682 q 397 700 385 692 q 424 728 410 708 q 446 775 439 747 m 216 909 q 271 952 216 909 q 449 996 326 996 q 633 909 571 996 q 662 700 696 822 q 517 492 628 578 q 285 406 407 406 q 101 492 164 406 q 72 700 38 578 q 216 909 106 822 m 494 524 q 541 561 494 524 q 616 700 588 597 q 592 876 644 803 q 435 949 539 949 q 239 876 332 949 q 118 700 146 803 q 143 524 90 597 q 299 451 196 451 q 494 524 401 451 z "},"°":{"ha":356,"x_min":31,"x_max":324,"o":"m 110 884 q 135 903 110 884 q 213 922 160 922 q 294 884 267 922 q 308 792 322 846 q 244 699 293 738 q 142 661 196 661 q 60 699 88 661 q 47 792 32 738 q 110 884 61 846 m 220 733 q 236 745 220 733 q 261 792 251 757 q 253 851 271 826 q 201 876 236 876 q 134 851 165 876 q 93 792 103 826 q 101 733 83 757 q 154 708 119 708 q 220 733 189 708 z "},"±":{"ha":476,"x_min":-115,"x_max":418,"o":"m 279 435 l 418 435 l 383 313 l 244 313 l 207 174 l 83 174 l 122 313 l -17 313 l 17 435 l 156 435 l 194 574 l 318 574 l 279 435 m -115 -43 l -81 81 l 319 81 l 286 -43 l -115 -43 z "},"´":{"ha":333,"x_min":56,"x_max":297,"o":"m 256 922 q 287 903 278 922 q 290 858 296 885 q 263 811 283 832 l 179 725 q 67 669 125 669 l 57 669 l 200 886 q 256 922 224 922 z "},"¶":{"ha":882,"x_min":24,"x_max":953,"o":"m 749 946 q 848 946 799 946 q 924 946 897 946 q 951 946 951 946 l 671 -71 l 515 -71 l 761 822 q 817 904 774 869 q 775 904 803 904 q 736 904 747 904 l 468 -71 l 311 -71 l 401 256 q 253 196 335 196 q 180 206 215 196 q 108 242 144 217 q 53 308 72 267 q 29 413 35 350 q 50 564 24 476 q 111 716 74 649 q 189 824 149 783 q 274 893 229 865 q 356 932 319 921 q 426 944 393 943 q 717 946 482 946 q 718 946 717 946 l 749 946 m 558 822 q 611 903 571 867 q 468 901 510 901 q 413 878 439 901 q 369 825 388 856 q 334 747 351 794 q 308 665 317 699 q 287 586 299 632 q 274 532 275 540 q 260 454 264 497 q 258 367 256 411 q 279 292 261 322 q 331 263 297 263 q 422 332 390 263 l 558 822 z "},"¸":{"ha":308,"x_min":47,"x_max":271,"o":"m 99 -111 q 192 -90 146 -87 q 255 -121 239 -92 q 232 -211 271 -150 q 185 -257 213 -240 q 135 -275 158 -274 q 92 -274 113 -276 q 61 -265 72 -271 l 49 -261 q 140 -231 101 -261 q 184 -172 179 -201 q 174 -125 189 -142 q 125 -119 151 -115 q 76 -135 99 -124 l 54 -144 l 111 -60 l 139 -60 l 99 -111 z "},"»":{"ha":488,"x_min":-28,"x_max":435,"o":"m 279 572 l 435 399 l 421 349 l 169 176 l 175 304 l 401 374 l 214 444 l 279 572 m 238 399 l 224 349 l -28 176 l -21 304 l 204 374 l 18 444 l 82 572 l 238 399 z "},"¿":{"ha":806,"x_min":-7,"x_max":789,"o":"m 619 597 q 600 583 619 597 q 542 568 582 568 q 480 597 501 568 q 470 667 458 626 q 519 737 482 708 q 596 765 556 765 q 657 737 636 765 q 667 667 678 708 q 619 597 656 626 m 636 331 q 752 233 717 301 q 758 56 788 164 q 709 -58 742 -4 q 626 -158 676 -112 q 503 -231 576 -204 q 344 -258 431 -258 q 76 -188 157 -258 q 36 33 -6 -118 q 89 138 53 92 q 171 214 125 183 q 263 269 217 244 q 353 322 308 293 q 424 381 399 351 q 456 434 442 403 q 474 486 469 465 l 479 507 l 574 507 q 574 497 574 503 q 569 474 574 492 q 553 437 564 456 q 520 392 543 418 q 465 343 497 367 q 363 237 421 310 q 260 81 306 164 q 196 -78 214 -3 q 214 -187 178 -153 q 301 -228 250 -221 q 401 -217 353 -235 q 491 -160 450 -200 q 547 -64 532 -119 q 553 13 558 -19 q 531 66 547 44 q 495 99 514 88 q 463 117 476 111 l 449 121 l 636 331 z "},"×":{"ha":433,"x_min":-35,"x_max":392,"o":"m 390 471 l 265 372 l 336 275 l 225 188 l 154 286 l 29 188 l -35 275 l 90 372 l 19 471 l 131 558 l 203 460 l 328 558 l 390 471 z "},"÷":{"ha":461,"x_min":-25,"x_max":411,"o":"m 10 436 l 410 436 l 376 313 l -25 313 l 10 436 m 92 240 q 109 253 92 240 q 163 267 126 267 q 219 240 200 267 q 227 177 238 214 q 183 114 217 140 q 113 88 150 88 q 58 114 76 88 q 49 177 39 140 q 92 240 58 214 m 293 510 q 276 497 293 510 q 223 483 260 483 q 167 510 186 483 q 158 573 147 536 q 201 636 168 610 q 272 663 235 663 q 328 636 308 663 q 337 573 347 610 q 293 510 326 536 z "},"ˆ":{"ha":401,"x_min":32,"x_max":369,"o":"m 256 939 l 369 740 l 247 714 l 246 904 l 139 714 l 32 740 l 256 939 z "},"ˇ":{"ha":404,"x_min":33,"x_max":371,"o":"m 264 939 l 371 913 l 147 714 l 33 913 l 156 939 l 157 749 l 264 939 z "},"˜":{"ha":456,"x_min":33,"x_max":422,"o":"m 308 796 q 362 801 333 789 q 406 831 390 814 l 421 846 q 415 833 419 842 q 397 804 411 825 q 368 767 383 783 q 331 738 353 751 q 288 725 310 725 q 239 734 258 725 q 211 753 219 743 q 188 777 203 764 q 157 797 174 790 q 104 797 135 806 q 53 776 74 789 l 33 764 q 42 775 36 768 q 64 800 47 782 q 98 833 81 818 q 139 858 115 847 q 183 869 163 869 q 228 860 210 869 q 255 838 246 850 q 278 813 264 826 q 308 796 292 800 z "},"–":{"ha":444,"x_min":-32,"x_max":404,"o":"m 3 440 l 403 440 l 369 318 l -32 318 l 3 440 z "},"—":{"ha":488,"x_min":-32,"x_max":447,"o":"m 3 440 l 447 440 l 413 318 l -32 318 l 3 440 z "},"‘":{"ha":251,"x_min":117,"x_max":338,"o":"m 254 975 q 316 947 296 975 q 325 877 336 918 q 278 808 314 836 q 200 779 242 779 q 139 808 160 779 q 129 876 118 836 q 165 944 136 906 q 217 1008 193 983 l 242 1032 l 275 1032 l 231 972 q 254 975 243 975 z "},"’":{"ha":249,"x_min":129,"x_max":350,"o":"m 267 1032 q 328 1003 307 1032 q 338 935 350 975 q 302 867 331 906 q 250 803 274 828 l 225 779 l 192 779 l 236 839 q 213 835 224 835 q 151 864 171 835 q 142 934 131 893 q 190 1003 153 975 q 267 1032 226 1032 z "},"‚":{"ha":251,"x_min":-124,"x_max":97,"o":"m 14 107 q 76 78 56 107 q 85 8 97 50 q 49 -60 78 -21 q -3 -122 21 -99 l -28 -147 l -61 -147 l -17 -87 q -40 -90 -29 -90 q -101 -61 -81 -90 q -111 9 -122 -32 q -63 78 -100 50 q 14 107 -26 107 z "},"‛":{"ha":251,"x_min":110,"x_max":325,"o":"m 243 928 q 304 899 283 928 q 314 830 325 871 q 266 760 303 789 q 189 731 229 731 q 165 735 178 731 l 178 674 l 143 674 q 139 684 142 678 q 129 710 136 690 q 119 747 122 731 q 113 789 115 764 q 117 829 110 814 q 165 899 128 871 q 243 928 201 928 z "},"“":{"ha":504,"x_min":32,"x_max":472,"o":"m 169 975 q 231 947 211 975 q 240 877 251 918 q 193 808 229 836 q 115 779 157 779 q 54 808 75 779 q 44 876 33 836 q 80 944 51 906 q 132 1008 108 983 l 157 1032 l 190 1032 l 146 972 q 169 975 158 975 m 390 975 q 451 947 431 975 q 461 877 472 918 q 413 808 450 836 q 336 779 376 779 q 274 808 294 779 q 264 876 253 836 q 300 944 272 906 q 353 1008 328 983 l 376 1032 l 410 1032 l 365 972 q 390 975 379 975 z "},"”":{"ha":504,"x_min":32,"x_max":472,"o":"m 389 1032 q 451 1003 431 1032 q 461 935 472 975 q 424 867 453 906 q 372 803 396 828 l 349 779 l 314 779 l 358 839 q 335 835 346 835 q 274 864 294 835 q 264 934 253 893 q 312 1003 275 975 q 389 1032 349 1032 m 169 1032 q 231 1003 210 1032 q 240 935 253 975 q 205 867 233 906 q 153 803 176 828 l 128 779 l 94 779 l 139 839 q 115 835 126 835 q 53 864 74 835 q 44 934 33 893 q 92 1003 56 975 q 169 1032 129 1032 z "},"„":{"ha":488,"x_min":-124,"x_max":332,"o":"m 14 107 q 76 78 56 107 q 85 8 97 50 q 49 -60 78 -21 q -3 -122 21 -99 l -28 -147 l -61 -147 l -17 -87 q -40 -90 -29 -90 q -101 -61 -81 -90 q -111 9 -122 -32 q -63 78 -100 50 q 14 107 -26 107 m 249 107 q 311 78 290 107 q 321 8 332 50 q 285 -60 313 -21 q 232 -122 257 -99 l 208 -147 l 174 -147 l 219 -87 q 194 -90 206 -90 q 133 -61 154 -90 q 124 9 113 -32 q 172 78 135 50 q 249 107 208 107 z "},"†":{"ha":374,"x_min":-75,"x_max":457,"o":"m 456 899 l 439 838 l 338 838 l 49 -208 l -75 -208 l 214 838 l 113 838 l 129 899 l 231 899 l 289 1107 l 411 1107 l 354 899 l 456 899 z "},"‡":{"ha":394,"x_min":-64,"x_max":468,"o":"m 450 838 l 349 838 l 238 438 l 339 438 l 322 376 l 221 376 l 60 -208 l -64 -208 l 97 376 l -4 376 l 13 438 l 114 438 l 225 838 l 124 838 l 140 899 l 242 899 l 300 1107 l 422 1107 l 365 899 l 467 899 l 450 838 z "},"•":{"ha":267,"x_min":-19,"x_max":211,"o":"m 44 448 q 63 463 44 448 q 124 478 82 478 q 189 448 167 478 q 199 376 211 418 q 149 303 188 333 q 68 272 111 272 q 3 303 25 272 q -6 376 -18 333 q 44 448 6 418 z "},"…":{"ha":738,"x_min":-124,"x_max":583,"o":"m -63 78 q -45 92 -63 78 q 15 107 -26 107 q 76 78 56 107 q 85 9 97 50 q 37 -61 74 -32 q -40 -90 0 -90 q -101 -61 -81 -90 q -111 8 -122 -32 q -63 78 -100 49 m 180 78 q 198 92 180 78 q 257 107 217 107 q 318 78 297 107 q 328 9 339 50 q 280 -61 317 -32 q 203 -90 243 -90 q 142 -61 163 -90 q 132 8 121 -32 q 180 78 143 49 m 423 78 q 441 92 423 78 q 500 107 460 107 q 561 78 540 107 q 571 9 582 50 q 523 -61 560 -32 q 446 -90 486 -90 q 385 -61 406 -90 q 375 8 364 -32 q 423 78 386 49 z "},"‰":{"ha":1450,"x_min":39,"x_max":1431,"o":"m 385 513 q 343 475 385 513 q 213 436 301 436 q 83 513 125 436 q 72 699 42 590 q 186 884 103 807 q 358 961 269 961 q 488 884 446 961 q 499 699 529 807 q 385 513 469 590 m 226 699 q 202 583 208 636 q 201 500 196 531 q 222 469 206 469 q 283 536 247 469 q 344 699 318 603 q 369 814 363 761 q 370 897 375 867 q 349 928 365 928 q 288 860 324 928 q 226 699 253 793 m 593 360 q 635 399 593 360 q 765 438 676 438 q 894 361 853 438 q 906 176 936 285 q 792 -10 876 67 q 620 -86 708 -86 q 491 -10 532 -86 q 480 175 450 67 q 593 360 510 283 m 753 175 q 776 290 769 238 q 778 374 783 343 q 756 406 772 406 q 696 338 732 406 q 633 175 660 271 q 609 60 615 113 q 608 -24 603 7 q 629 -54 613 -54 q 690 13 654 -54 q 753 175 726 81 m 1087 360 q 1129 399 1087 360 q 1259 438 1171 438 q 1388 361 1347 438 q 1399 176 1429 285 q 1286 -10 1369 67 q 1114 -86 1203 -86 q 984 -10 1025 -86 q 973 175 943 67 q 1087 360 1003 283 m 1246 175 q 1269 290 1263 238 q 1271 374 1276 343 q 1250 406 1265 406 q 1189 338 1225 406 q 1126 175 1153 271 q 1103 60 1110 113 q 1101 -24 1096 7 q 1122 -54 1107 -54 q 1183 13 1147 -54 q 1246 175 1219 81 m 40 25 l 821 850 l 939 850 l 157 25 l 40 25 z "},"‹":{"ha":294,"x_min":-19,"x_max":247,"o":"m 246 572 l 240 444 l 15 374 l 201 304 l 138 176 l -18 349 l -4 399 l 246 572 z "},"›":{"ha":296,"x_min":-28,"x_max":239,"o":"m 82 572 l 238 399 l 224 349 l -28 176 l -21 304 l 204 374 l 18 444 l 82 572 z "},"⁄":{"ha":1300,"x_min":63,"x_max":1239,"o":"m 1092 950 l 1238 950 l 208 -246 l 63 -246 l 1092 950 z "},"€":{"ha":1107,"x_min":33,"x_max":1075,"o":"m 610 150 q 734 167 675 150 q 831 210 793 185 q 896 261 868 235 q 935 304 924 288 q 947 322 947 321 l 965 322 q 954 303 961 315 q 922 254 947 290 q 866 185 896 218 q 788 113 836 153 q 686 45 739 74 q 561 -3 633 17 q 411 -22 489 -22 q 284 0 339 -22 q 199 60 229 22 q 151 147 169 97 q 133 249 133 196 q 135 357 132 303 l 33 357 l 46 404 l 142 404 q 168 510 151 460 l 75 510 l 89 557 l 185 557 q 417 887 274 772 q 715 1001 560 1001 q 844 992 782 1001 q 945 970 906 983 q 1015 944 985 957 q 1060 921 1046 931 l 1074 911 l 783 594 q 788 616 785 603 q 797 669 790 629 q 806 744 803 708 q 806 823 808 779 q 792 898 803 867 q 758 951 782 929 q 699 972 735 972 q 435 638 557 972 q 410 557 421 600 l 643 557 l 631 510 l 400 510 q 390 404 390 453 l 601 404 l 589 357 l 394 357 q 465 205 407 260 q 610 150 522 150 z "},"™":{"ha":768,"x_min":38,"x_max":726,"o":"m 700 1001 l 726 1001 q 688 956 697 989 l 617 699 q 616 672 613 682 q 624 657 619 661 l 629 653 l 500 653 q 539 699 529 664 q 611 960 610 958 l 454 746 l 458 653 l 388 653 l 369 975 l 299 722 q 295 681 293 696 q 304 658 297 665 l 310 653 l 246 653 q 266 677 256 660 q 283 710 276 694 l 289 724 l 335 888 q 335 896 335 890 q 331 916 335 901 q 321 943 328 931 q 298 969 314 956 q 260 988 282 982 l 181 699 q 179 672 176 682 q 188 657 182 661 l 193 653 l 64 653 q 101 699 92 664 l 182 988 q 105 953 140 979 q 54 908 69 928 l 39 888 l 81 1001 l 440 1001 q 453 760 440 1001 l 629 1001 l 700 1001 z "},"−":{"ha":446,"x_min":-33,"x_max":403,"o":"m 1 435 l 401 435 l 368 313 l -33 313 l 1 435 z "},"":{"ha":733,"x_min":-33,"x_max":765,"o":"m 458 722 q 568 714 515 722 q 656 693 621 706 q 716 669 690 681 q 753 649 742 657 l 765 640 q 601 46 665 279 q 520 -109 578 -36 q 397 -226 463 -182 q 271 -297 331 -271 q 175 -322 211 -322 q 147 -322 157 -322 q 117 -322 138 -322 q 85 -319 97 -321 q 56 -313 74 -317 q 28 -305 39 -310 q 3 -293 17 -300 q -16 -276 -10 -286 q -28 -252 -22 -265 q -33 -222 -33 -239 q -26 -185 -32 -206 q 9 -116 -15 -147 q 61 -69 33 -85 q 115 -42 89 -53 q 157 -26 140 -31 l 175 -24 q 158 -40 168 -29 q 125 -84 147 -50 q 94 -151 103 -118 q 85 -199 88 -176 q 89 -247 83 -221 q 117 -288 94 -272 q 181 -304 140 -304 q 216 -294 199 -304 q 247 -269 233 -285 q 274 -232 261 -253 q 297 -188 288 -211 q 316 -142 307 -165 q 331 -99 325 -119 q 342 -62 338 -78 q 347 -36 346 -46 l 350 -26 l 367 38 q 218 -26 310 -26 q 26 76 82 -26 q 14 342 -31 178 q 175 619 63 515 q 458 722 288 722 m 488 471 q 510 550 488 471 q 474 685 539 683 q 351 610 404 685 q 251 368 299 536 q 226 246 233 301 q 223 153 219 190 q 237 90 226 117 q 263 52 247 64 q 296 40 278 40 q 388 110 349 40 l 488 471 z "},"":{"ha":722,"x_min":-40,"x_max":689,"o":"m 431 717 q 535 704 489 717 q 609 672 581 692 q 656 626 638 651 q 681 572 675 600 q 688 516 688 543 q 681 464 688 489 l 565 44 q 594 49 581 44 q 615 57 608 53 l 622 61 l 626 39 q 578 1 610 15 q 524 -14 547 -12 l 501 -15 l 396 -15 l 346 75 q 199 -15 289 0 q 147 -19 174 -19 q 85 -13 119 -19 q 26 9 51 -7 q -19 53 1 25 q -39 124 -39 81 q -24 226 -39 167 q 35 333 -4 288 q 124 401 75 378 q 222 436 174 425 q 318 447 269 447 q 426 379 413 447 q 449 457 439 425 q 450 461 449 458 q 463 509 458 492 q 473 558 467 526 q 478 607 479 589 q 472 645 476 625 q 454 675 468 665 q 418 685 440 685 q 364 664 392 685 q 315 614 336 643 q 278 555 294 585 q 251 504 261 525 l 243 483 l 138 581 q 147 595 140 586 q 177 628 153 604 q 232 669 201 651 q 315 701 263 686 q 431 717 368 717 m 353 110 q 406 300 381 210 q 405 310 406 304 q 401 333 404 317 q 393 363 399 350 q 374 385 388 375 q 340 394 360 394 q 196 193 251 394 q 218 14 146 14 q 285 38 251 14 q 335 86 318 63 l 353 110 z "},"":{"ha":1204,"x_min":-90,"x_max":1299,"o":"m 1290 696 l 1193 696 l 1017 57 q 1076 74 1058 57 l 1082 51 q 1067 37 1076 46 q 1026 13 1058 28 q 956 -3 993 -3 l 871 -3 q 808 27 829 -3 q 797 99 786 57 l 942 619 q 925 696 963 696 l 815 696 l 546 -278 l 315 -278 q 586 696 543 542 l 411 696 l 140 -278 l -89 -278 q 181 696 139 542 l 93 696 l 100 725 l 189 725 q 215 794 199 758 q 262 872 232 829 q 328 949 292 915 q 419 1004 365 982 q 532 1026 472 1026 q 744 957 694 1026 q 938 1026 831 1026 q 1037 1017 993 1026 q 1102 995 1081 1008 q 1138 969 1124 982 q 1154 947 1151 957 l 1158 939 l 992 810 q 994 826 993 815 q 997 863 994 836 q 997 911 999 889 q 990 956 994 933 q 971 988 985 978 q 938 992 957 997 q 891 947 907 982 q 854 833 875 911 q 847 811 850 818 q 824 725 829 744 l 990 725 q 1079 769 1035 740 q 1156 830 1124 799 q 1213 891 1188 861 q 1251 939 1239 921 l 1265 958 l 1201 725 l 1299 725 l 1290 696 m 594 725 q 618 790 603 756 q 613 875 618 790 q 539 993 593 1001 q 532 992 536 992 q 487 947 503 982 q 449 833 471 911 q 443 811 444 818 q 433 776 442 806 q 419 725 425 746 l 594 725 z "},"":{"ha":913,"x_min":-89,"x_max":1007,"o":"m 999 696 l 901 696 l 725 57 q 785 74 767 57 l 790 51 q 776 37 785 46 q 734 13 767 28 q 664 -3 701 -3 l 579 -3 q 516 27 538 -3 q 506 99 494 57 l 650 619 q 655 636 651 625 q 660 652 658 647 q 663 666 661 657 q 663 679 664 675 q 658 688 661 683 q 649 694 656 692 q 633 696 643 696 l 558 696 l 567 725 l 650 725 q 707 734 682 725 q 751 762 732 743 q 781 794 771 781 q 806 833 790 808 q 811 843 810 840 q 844 917 836 882 q 845 983 853 953 q 803 1030 838 1013 q 711 1047 769 1047 q 598 1023 649 1047 q 519 964 547 999 q 474 894 492 929 q 450 835 456 860 l 444 811 l 142 -278 l -87 -278 q 142 574 57 246 q 183 696 158 636 l 94 696 l 101 725 l 196 725 q 403 983 272 894 q 697 1071 533 1071 q 818 1053 768 1071 q 892 1007 868 1035 q 928 945 915 979 q 938 876 940 911 q 932 814 936 842 q 922 768 928 786 l 915 750 l 908 725 l 1007 725 l 999 696 z "},"":{"ha":1488,"x_min":-169,"x_max":1376,"o":"m 942 0 q 1003 51 978 7 q 1038 138 1029 94 q 1042 203 1046 182 l 1019 342 l 707 342 l 700 332 q 633 94 617 207 q 658 36 638 60 q 696 6 678 13 l 714 0 l 346 0 q 536 169 435 63 l 506 342 l 192 342 l 186 332 q 118 94 103 207 q 144 36 124 60 q 182 6 164 13 l 200 0 l -169 0 q -149 15 -162 6 q -99 56 -136 24 q -24 122 -61 88 q 60 211 13 157 q 147 321 108 265 l 438 758 l 394 1025 l 658 1025 q 729 422 692 650 l 953 758 l 910 1025 l 1172 1025 q 1267 272 1228 499 q 1293 158 1278 210 q 1322 78 1308 107 q 1349 31 1336 50 q 1368 7 1361 13 l 1375 0 l 942 0 m 211 371 l 500 371 l 443 721 l 211 371 m 726 371 l 1015 371 l 958 721 l 726 371 z "},"":{"ha":1625,"x_min":-133,"x_max":1625,"o":"m 1604 785 q 1560 692 1590 733 q 1499 628 1531 651 q 1428 586 1468 604 q 1361 561 1388 568 q 1307 550 1335 554 l 1304 542 q 1315 540 1308 540 q 1343 535 1321 539 q 1384 526 1365 532 q 1431 508 1403 519 q 1477 482 1458 497 q 1518 445 1496 467 q 1547 396 1540 424 q 1559 332 1554 368 q 1549 251 1564 296 q 1499 154 1533 197 q 1423 85 1465 111 q 1333 41 1381 60 q 1240 15 1285 22 q 1158 4 1194 8 q 1100 0 1121 0 l 1078 0 l 618 0 q 627 4 621 1 q 649 19 633 7 q 679 44 665 31 q 708 83 693 58 q 731 136 722 107 q 939 903 938 899 l 478 275 l 492 0 l 286 0 l 229 949 l 24 204 q 13 81 7 126 q 38 18 19 36 l 54 0 l -133 0 q -74 73 -106 21 q -22 167 -42 125 l -4 208 l 213 996 l 192 1024 l 440 1024 q 475 317 440 1024 l 944 953 q 930 994 940 976 q 910 1018 919 1013 l 900 1024 l 1388 1024 q 1403 1024 1393 1025 q 1442 1020 1413 1024 q 1494 1008 1472 1017 q 1548 983 1517 1000 q 1592 940 1579 967 q 1615 876 1604 914 q 1604 785 1625 838 m 1335 257 q 1224 554 1388 450 q 1097 635 1207 565 l 931 29 l 1093 29 q 1154 39 1124 29 q 1220 72 1185 49 q 1285 142 1256 94 q 1335 257 1315 189 m 1247 578 q 1260 585 1253 581 q 1289 608 1268 590 q 1328 648 1310 626 q 1366 705 1346 669 q 1397 779 1386 740 q 1387 936 1424 876 q 1296 996 1350 996 l 1197 996 l 1107 668 l 1247 578 z "},"":{"ha":1607,"x_min":46,"x_max":1571,"o":"m 1221 664 q 1353 727 1286 708 q 1474 732 1421 746 q 1549 664 1526 718 q 1544 510 1571 610 l 1419 60 q 1479 76 1461 60 l 1485 54 q 1470 40 1479 49 q 1428 15 1461 31 q 1358 0 1396 0 l 1275 0 q 1212 30 1233 0 q 1201 101 1190 60 l 1308 489 q 1251 622 1344 622 q 1124 544 1192 622 q 1044 419 1057 467 q 1007 285 1036 390 q 967 135 978 179 q 964 55 956 85 q 988 13 972 25 l 1004 0 l 624 0 q 633 4 626 1 q 655 18 639 7 q 685 44 671 29 q 713 83 699 58 q 736 135 728 107 q 837 501 764 235 q 936 858 910 767 q 940 874 938 867 q 694 983 825 958 l 460 136 q 458 56 450 86 q 482 13 467 25 l 499 0 l 118 0 q 127 4 121 1 q 149 19 133 7 q 179 44 165 31 q 208 83 193 58 q 231 136 222 107 l 464 982 q 317 931 388 967 q 199 854 246 894 q 115 776 151 814 q 63 713 79 738 l 46 689 l 167 1024 l 1210 1024 q 1119 689 1156 821 l 1118 689 q 1097 610 1113 664 q 1074 526 1082 556 q 1221 664 1135 606 z "},"":{"ha":1344,"x_min":13,"x_max":1339,"o":"m 1313 510 l 1188 60 q 1247 76 1229 60 l 1253 54 q 1238 40 1247 49 q 1197 15 1229 31 q 1126 0 1164 0 l 1043 0 q 980 30 1001 0 q 969 101 958 60 l 1076 489 q 1019 622 1113 622 q 893 544 960 622 q 813 419 826 467 q 735 135 775 283 q 732 55 724 85 q 757 13 740 25 l 772 0 l 392 0 q 401 4 396 1 q 423 18 407 7 q 453 44 439 29 q 481 83 467 58 q 504 135 496 107 l 717 915 q 663 936 688 925 q 622 962 643 944 q 588 992 601 979 q 553 1032 575 1006 q 526 1061 536 1051 q 499 1089 517 1071 q 469 1116 482 1107 q 437 1137 456 1125 q 399 1154 418 1149 q 358 1165 381 1160 q 309 1169 335 1169 q 256 1163 283 1168 q 110 1069 160 1144 q 60 906 60 993 q 86 792 60 846 q 165 717 113 739 q 264 742 213 717 q 354 803 315 767 q 425 875 393 839 q 475 936 457 911 l 492 961 l 428 728 l 525 728 l 517 699 l 419 699 l 243 60 q 303 76 285 60 l 308 54 q 294 40 303 49 q 252 15 285 31 q 182 0 219 0 l 99 0 q 34 30 56 0 q 25 101 13 60 l 168 622 q 163 686 185 682 q 66 767 101 708 q 31 906 31 825 q 53 1025 31 967 q 126 1131 75 1083 q 250 1192 178 1178 q 310 1198 281 1197 q 364 1193 339 1199 q 410 1181 389 1188 q 452 1161 431 1175 q 488 1138 474 1147 q 520 1110 501 1128 q 548 1081 539 1092 q 575 1051 557 1071 q 608 1013 597 1025 q 638 986 619 1001 q 675 963 657 971 q 743 953 704 951 q 824 965 782 954 q 899 988 865 975 q 956 1010 933 1000 l 978 1019 q 842 526 951 921 q 989 664 903 607 q 1122 727 1054 708 q 1242 732 1189 746 q 1317 664 1294 718 q 1313 510 1339 610 z "},"":{"ha":1947,"x_min":-72,"x_max":2188,"o":"m 371 713 q 290 683 314 713 q 283 605 265 653 q 360 513 301 557 q 517 347 463 435 q 549 171 572 258 q 421 31 524 82 q 188 -19 318 -19 q 49 -4 114 -19 q -43 26 -15 11 l -72 42 l 57 275 q 58 249 57 265 q 69 191 60 233 q 92 115 78 149 q 133 53 106 82 q 194 19 160 24 q 274 28 236 14 q 333 73 311 43 q 361 139 354 103 q 347 215 368 175 q 281 288 326 256 q 112 433 156 374 q 88 564 68 492 q 188 690 110 642 q 381 739 265 739 q 538 729 467 739 q 639 711 610 719 l 667 701 l 569 475 q 560 501 567 485 q 532 558 553 517 q 490 630 511 599 q 435 687 468 661 q 371 713 403 713 m 889 60 q 949 76 931 60 l 954 54 q 940 40 949 49 q 898 15 931 31 q 828 0 865 0 l 743 0 q 680 30 701 0 q 671 101 658 60 l 815 624 q 800 699 829 669 l 725 699 l 732 728 l 864 728 q 953 772 908 743 q 1031 833 999 801 q 1088 894 1063 865 q 1128 943 1114 924 l 1140 961 l 1075 728 l 1174 728 l 1165 699 l 1067 699 l 889 60 m 2117 -25 q 2176 -72 2168 -25 q 2125 -190 2188 -132 q 1797 -275 2018 -294 q 1688 -246 1733 -269 q 1621 -189 1643 -222 q 1587 -116 1599 -156 q 1576 -38 1575 -76 q 1580 32 1576 0 q 1589 82 1583 64 l 1594 101 q 1672 382 1651 304 q 1681 410 1675 390 q 1690 443 1686 429 q 1700 478 1694 457 q 1708 514 1706 499 q 1710 547 1710 529 q 1708 578 1711 565 q 1697 601 1704 590 q 1677 617 1690 611 q 1646 622 1664 622 q 1600 611 1624 622 q 1556 582 1576 600 q 1517 542 1536 564 q 1485 499 1499 521 q 1460 460 1471 478 q 1444 431 1450 442 l 1439 419 l 1360 135 q 1357 55 1349 85 q 1381 13 1365 25 l 1397 0 l 1017 0 q 1025 4 1019 1 q 1047 19 1031 7 q 1078 44 1064 31 q 1106 83 1092 58 q 1129 135 1121 107 l 1383 1047 q 1354 1182 1406 1124 q 1308 1233 1326 1215 q 1254 1276 1290 1251 q 1171 1313 1218 1301 q 1065 1325 1124 1325 q 876 1258 954 1325 q 782 1114 806 1200 q 807 1019 765 1053 q 924 987 849 985 q 1076 1024 999 989 q 1068 1008 1074 1018 q 1043 974 1063 999 q 1003 931 1024 950 q 952 896 983 911 q 890 881 921 881 q 807 901 842 881 q 758 955 772 922 q 740 1029 743 988 q 750 1114 736 1071 q 858 1281 778 1214 q 1074 1358 950 1358 q 1188 1345 1138 1358 q 1276 1306 1238 1332 q 1333 1260 1314 1279 q 1382 1206 1353 1240 q 1431 1156 1418 1167 q 1501 1126 1463 1126 q 1651 1182 1582 1126 l 1639 1139 l 1468 528 q 1487 550 1475 536 q 1535 600 1499 564 q 1611 664 1572 636 q 1707 715 1650 692 q 1819 738 1764 738 q 1906 714 1874 738 q 1945 657 1938 690 q 1952 590 1953 624 q 1944 533 1951 557 l 1939 510 q 1900 371 1919 444 q 1883 318 1897 363 q 1856 228 1868 274 q 1826 122 1843 183 q 1801 5 1810 60 q 1791 -101 1793 -50 q 1801 -190 1789 -153 q 1839 -239 1813 -226 q 1933 -250 1890 -262 q 2010 -201 1976 -237 q 2068 -125 2044 -164 q 2104 -56 2092 -86 l 2117 -25 z "},"":{"ha":824,"x_min":17,"x_max":910,"o":"m 538 654 l 849 724 l 665 61 q 725 78 707 61 l 731 56 q 716 41 725 50 q 674 17 707 32 q 604 1 642 1 l 521 1 q 456 31 478 1 q 447 103 435 61 l 574 564 q 585 628 590 613 q 538 654 581 644 m 704 982 q 728 1001 704 982 q 803 1019 751 1019 q 883 982 856 1019 q 894 893 910 944 q 892 882 894 889 q 881 855 890 875 q 856 816 871 835 q 810 775 840 797 q 742 737 781 753 q 641 710 703 721 q 506 699 579 699 l 425 699 l 247 60 q 307 76 289 60 l 313 54 q 298 40 307 49 q 256 15 289 31 q 186 0 224 0 l 101 0 q 38 30 60 0 q 29 101 17 60 l 174 622 q 183 675 185 651 q 158 699 182 699 l 83 699 l 90 728 l 222 728 q 312 772 267 743 q 389 833 357 801 q 447 894 421 864 q 486 942 472 924 l 499 961 l 433 728 l 514 728 q 729 767 631 726 q 653 805 679 768 q 642 893 628 842 q 704 982 657 944 z "},"":{"ha":849,"x_min":-362,"x_max":1090,"o":"m 1019 -25 q 1079 -72 1069 -25 q 1028 -190 1089 -132 q 700 -275 919 -294 q 590 -246 636 -269 q 523 -189 544 -222 q 490 -116 501 -156 q 478 -38 478 -76 q 483 32 479 0 q 490 82 486 64 l 496 101 q 574 382 553 304 q 583 410 576 390 q 592 443 589 429 q 601 478 596 457 q 609 514 607 499 q 613 547 611 529 q 610 578 614 565 q 599 601 606 590 q 579 617 592 611 q 549 622 567 622 q 501 611 525 622 q 458 582 478 600 q 419 542 438 564 q 387 499 401 521 q 362 460 372 478 q 346 431 351 442 l 340 419 l 261 135 q 258 55 250 85 q 282 13 267 25 l 299 0 l -82 0 q -73 4 -79 1 q -51 19 -67 7 q -21 44 -35 31 q 8 83 -7 58 q 31 135 24 107 l 285 1047 q 257 1182 307 1124 q 210 1233 229 1215 q 156 1276 192 1251 q 74 1313 121 1301 q -33 1325 26 1325 q -222 1258 -143 1325 q -317 1114 -293 1200 q -291 1019 -333 1053 q -174 987 -249 985 q -22 1024 -99 989 q -31 1008 -25 1018 q -56 974 -36 999 q -95 931 -75 950 q -147 896 -115 911 q -208 881 -178 881 q -291 901 -257 881 q -340 955 -325 922 q -358 1029 -354 988 q -349 1114 -362 1071 q -240 1281 -321 1213 q -25 1358 -149 1358 q 90 1345 39 1358 q 178 1306 140 1332 q 235 1260 215 1279 q 285 1206 254 1240 q 332 1156 319 1167 q 404 1126 364 1126 q 553 1182 483 1126 l 542 1139 l 371 528 q 388 550 376 536 q 438 600 400 564 q 513 664 475 636 q 608 715 551 692 q 720 738 665 738 q 808 714 775 738 q 847 657 840 690 q 853 590 854 624 q 847 533 853 557 l 840 510 q 801 371 822 444 q 785 318 799 363 q 758 228 771 274 q 728 122 744 183 q 704 5 713 60 q 693 -101 696 -50 q 703 -190 690 -153 q 742 -239 715 -226 q 835 -250 792 -262 q 912 -201 878 -237 q 970 -125 946 -164 q 1007 -56 994 -86 l 1019 -25 z "},"":{"ha":826,"x_min":-99,"x_max":1068,"o":"m 997 -25 q 1057 -72 1049 -25 q 1006 -190 1068 -132 q 678 -275 899 -294 q 569 -246 614 -269 q 501 -189 524 -222 q 467 -116 479 -156 q 456 -38 456 -76 q 460 32 457 0 q 469 82 464 64 l 474 101 q 553 382 531 304 q 561 410 556 390 q 571 443 567 429 q 580 478 575 457 q 587 514 585 499 q 590 547 589 529 q 588 578 592 565 q 577 601 583 590 q 558 617 571 611 q 526 622 544 622 q 463 602 496 622 q 404 550 431 582 q 361 493 378 518 q 331 442 344 468 q 244 136 325 429 q 242 56 233 86 q 267 14 251 26 l 283 1 l -97 1 q -88 6 -94 3 q -66 20 -82 8 q -37 46 -50 32 q -8 84 -24 60 q 15 138 7 108 q 138 579 57 290 q 149 644 153 629 q 101 671 144 660 l 411 740 q 354 535 382 635 q 399 584 374 558 q 472 649 425 610 q 578 713 518 688 q 699 738 639 738 q 785 714 753 738 q 826 657 818 690 q 833 590 833 624 q 825 533 832 557 l 818 510 q 779 371 800 444 q 763 318 778 363 q 735 228 749 274 q 706 122 722 183 q 682 5 690 60 q 671 -101 674 -50 q 681 -190 668 -153 q 719 -239 693 -226 q 813 -250 771 -262 q 890 -201 856 -237 q 948 -125 924 -164 q 985 -56 972 -86 l 997 -25 z "},"":{"ha":1204,"x_min":-99,"x_max":1446,"o":"m 1375 -25 q 1433 -72 1425 -25 q 1383 -190 1444 -132 q 1056 -275 1275 -294 q 946 -246 992 -269 q 878 -189 900 -222 q 844 -116 857 -156 q 833 -38 832 -76 q 838 32 835 0 q 846 82 842 64 l 851 101 q 929 382 908 304 q 938 410 932 390 q 948 443 944 429 q 957 478 951 457 q 965 514 963 499 q 967 547 967 529 q 965 578 968 565 q 954 601 961 590 q 935 617 947 611 q 904 622 922 622 q 847 606 872 622 q 803 562 821 589 q 776 513 786 535 q 760 468 767 492 q 712 299 743 413 q 668 139 681 185 q 665 58 657 88 q 690 15 674 28 l 706 3 l 325 3 q 335 7 329 4 q 356 21 340 10 q 386 47 372 32 q 415 85 400 61 q 438 138 431 110 q 536 492 492 333 q 479 625 572 625 q 398 580 433 625 q 338 474 363 535 q 244 138 303 349 q 242 57 233 88 q 267 14 251 26 l 283 1 l -97 1 q -88 6 -94 3 q -66 20 -82 8 q -37 46 -50 32 q -8 84 -24 60 q 15 138 7 108 q 138 579 57 290 q 149 644 153 629 q 101 671 144 660 l 411 740 q 372 596 394 678 q 449 667 406 638 q 566 726 506 707 q 676 740 626 744 q 757 697 726 735 q 785 593 788 660 q 1076 738 931 738 q 1163 714 1131 738 q 1203 657 1196 690 q 1209 590 1210 624 q 1203 533 1208 557 l 1196 510 q 1157 371 1178 444 q 1140 318 1154 363 q 1113 228 1126 274 q 1084 122 1100 183 q 1060 5 1068 60 q 1049 -101 1051 -50 q 1058 -190 1046 -153 q 1097 -239 1071 -226 q 1190 -250 1147 -262 q 1267 -201 1233 -237 q 1326 -124 1301 -164 q 1363 -56 1350 -85 l 1375 -25 z "},"":{"ha":815,"x_min":-101,"x_max":1074,"o":"m 1003 -25 q 1063 -72 1054 -25 q 1011 -190 1074 -132 q 683 -275 904 -294 q 574 -246 619 -269 q 507 -189 529 -222 q 473 -116 485 -156 q 462 -38 461 -76 q 466 32 463 0 q 475 82 469 64 l 481 101 l 485 132 q 496 178 489 150 q 504 206 499 186 q 514 239 510 225 q 524 274 518 253 q 531 310 529 294 q 534 343 533 325 q 531 374 535 361 q 521 397 528 386 q 501 413 514 407 q 469 418 488 418 q 400 394 436 418 q 336 332 364 369 q 293 270 308 294 q 265 224 278 246 q 256 185 265 218 q 242 136 246 153 q 240 56 231 86 q 264 14 249 26 l 281 1 l -100 1 q -91 6 -97 3 q -69 20 -85 8 q -39 46 -53 32 q -10 84 -25 60 q 13 138 4 108 q 110 492 38 229 q 211 860 182 754 q 223 925 228 910 q 176 951 218 940 l 486 1021 q 403 719 474 975 q 294 325 332 464 q 433 458 353 401 q 469 494 451 475 q 538 590 508 531 q 578 692 567 650 l 588 733 l 899 733 q 776 685 858 733 q 635 595 693 638 q 521 507 578 553 q 642 533 583 533 q 729 510 697 533 q 769 453 761 486 q 776 386 776 419 q 768 329 775 353 l 763 306 q 724 167 743 240 q 708 117 721 160 q 685 42 694 74 q 668 -38 676 11 q 662 -122 660 -87 q 679 -190 664 -157 q 725 -239 694 -224 q 819 -250 776 -262 q 897 -201 863 -237 q 954 -125 931 -164 q 990 -56 978 -86 l 1003 -25 z "},"":{"ha":826,"x_min":-362,"x_max":1085,"o":"m 1014 -25 q 1072 -72 1064 -25 q 1022 -190 1083 -132 q 693 -275 914 -294 q 585 -246 631 -269 q 517 -189 539 -222 q 483 -116 494 -156 q 472 -38 471 -76 q 476 32 474 0 q 485 82 479 64 l 490 101 l 494 132 q 506 178 499 150 q 515 206 508 186 q 524 239 521 225 q 533 274 528 253 q 541 310 539 294 q 544 343 543 325 q 541 374 544 361 q 531 397 538 386 q 511 413 524 407 q 481 418 499 418 q 296 258 389 418 l 261 135 q 258 55 250 85 q 282 13 267 25 l 299 0 l -82 0 q -73 4 -79 1 q -51 19 -67 7 q -21 44 -35 31 q 8 83 -7 58 q 31 135 24 107 l 286 1047 q 257 1182 307 1124 q 210 1233 229 1215 q 156 1276 192 1251 q 74 1313 121 1301 q -33 1325 26 1325 q -222 1258 -143 1325 q -317 1114 -293 1200 q -291 1018 -333 1051 q -174 987 -249 985 q -22 1024 -99 989 q -31 1008 -25 1018 q -56 974 -36 999 q -95 931 -75 950 q -147 896 -115 911 q -208 881 -178 881 q -291 901 -257 881 q -340 955 -325 922 q -358 1029 -354 988 q -349 1114 -362 1071 q -240 1281 -321 1213 q -25 1358 -149 1358 q 90 1345 39 1358 q 178 1306 140 1332 q 235 1260 215 1279 q 285 1206 254 1240 q 332 1156 319 1165 q 404 1126 364 1126 q 553 1182 483 1126 l 542 1139 l 319 344 q 443 458 376 411 q 481 493 461 475 q 548 590 518 531 q 588 692 578 650 l 599 733 l 910 733 q 786 685 868 733 q 646 595 704 638 q 531 507 588 553 q 653 533 593 533 q 740 510 707 533 q 779 453 772 486 q 785 386 786 419 q 779 329 785 353 l 772 306 q 733 167 754 240 q 718 117 732 160 q 695 42 704 74 q 678 -38 686 11 q 672 -122 671 -87 q 689 -190 674 -157 q 736 -239 704 -224 q 829 -250 786 -262 q 906 -201 872 -237 q 964 -125 940 -164 q 1001 -56 988 -86 l 1014 -25 z "},"":{"ha":371,"x_min":-393,"x_max":524,"o":"m 511 1138 l 213 60 q 272 76 254 60 l 276 54 q 263 40 272 49 q 222 15 254 31 q 151 0 189 0 l 67 0 q 3 30 25 0 q -7 101 -18 60 l 203 858 q 226 1181 275 1124 q 180 1232 199 1214 q 126 1275 161 1250 q 43 1312 90 1300 q -64 1324 -4 1324 q -253 1257 -174 1324 q -347 1111 -324 1199 q -322 1017 -364 1050 q -204 985 -279 983 q -51 1022 -129 988 q -61 1007 -56 1017 q -85 973 -67 997 q -125 929 -104 949 q -177 894 -146 910 q -239 879 -208 879 q -321 899 -286 879 q -370 953 -356 919 q -388 1028 -385 986 q -379 1111 -392 1069 q -271 1279 -351 1211 q -56 1356 -179 1356 q 59 1343 8 1356 q 147 1304 110 1331 q 205 1258 185 1278 q 254 1204 225 1239 q 301 1154 289 1164 q 374 1124 335 1124 q 522 1179 453 1124 l 511 1138 z "},"":{"ha":1675,"x_min":115,"x_max":1810,"o":"m 1526 1024 l 1808 1024 q 1799 1019 1806 1022 q 1777 1006 1793 1017 q 1747 981 1761 994 q 1719 942 1733 967 q 1696 889 1704 917 l 1489 136 q 1486 56 1478 86 q 1510 13 1494 25 l 1526 0 l 1146 0 q 1156 4 1150 1 q 1177 19 1161 7 q 1207 44 1193 31 q 1236 83 1221 58 q 1258 136 1251 107 q 1469 903 1469 899 l 1008 275 l 1022 0 l 817 0 l 761 940 l 554 204 q 544 81 538 126 q 568 18 551 36 l 585 0 l 397 0 q 458 73 425 21 q 508 167 490 125 l 526 208 l 704 853 q 736 985 725 926 q 749 1076 747 1043 q 749 1134 751 1110 q 742 1167 746 1158 q 733 1182 739 1176 q 688 1232 706 1214 q 633 1276 669 1250 q 550 1313 597 1301 q 444 1325 503 1325 q 254 1258 333 1325 q 161 1113 185 1199 q 186 1017 144 1051 q 303 985 228 983 q 456 1024 378 988 q 447 1008 453 1018 q 422 974 440 999 q 383 930 403 949 q 331 895 363 911 q 269 879 300 879 q 186 900 221 879 q 137 953 151 921 q 119 1028 122 986 q 129 1113 115 1069 q 238 1279 157 1213 q 453 1357 329 1357 q 567 1344 517 1357 q 655 1305 617 1332 q 713 1259 693 1278 q 761 1206 732 1240 q 810 1156 797 1165 q 881 1125 842 1125 q 914 1125 901 1125 q 935 1128 926 1125 q 947 1132 944 1131 q 956 1140 949 1133 q 967 1150 964 1147 q 1007 317 994 560 l 1526 1024 z "},"":{"ha":1674,"x_min":115,"x_max":1810,"o":"m 1526 1025 l 1808 1025 q 1799 1021 1806 1024 q 1777 1006 1793 1018 q 1747 981 1761 994 q 1719 942 1733 967 q 1696 889 1704 918 l 1489 136 q 1486 56 1478 86 q 1510 14 1494 26 l 1526 1 l 1146 1 q 1156 6 1150 3 q 1177 19 1161 8 q 1207 45 1193 31 q 1236 84 1221 60 q 1258 136 1251 108 q 1469 904 1469 899 l 1010 276 l 1022 1 q 1026 -25 1024 -8 q 1036 -85 1028 -42 q 1057 -161 1044 -128 q 1092 -223 1069 -194 q 1144 -256 1115 -251 q 1222 -238 1185 -260 q 1283 -182 1260 -217 q 1325 -112 1307 -147 q 1351 -50 1343 -76 l 1358 -25 q 1369 -26 1363 -25 q 1389 -33 1375 -26 q 1410 -52 1403 -40 q 1417 -90 1418 -64 q 1400 -149 1417 -115 q 1125 -278 1342 -278 q 1053 -274 1085 -278 q 976 -255 1021 -271 q 901 -211 932 -239 q 845 -128 869 -183 q 817 1 821 -74 l 761 942 l 554 206 q 544 83 538 128 q 568 19 551 38 l 585 1 l 397 1 q 458 73 425 21 q 508 168 490 125 l 526 210 l 704 854 q 736 985 725 926 q 749 1078 747 1044 q 749 1135 751 1111 q 742 1169 746 1160 q 733 1182 739 1178 q 688 1233 706 1215 q 633 1276 669 1251 q 550 1314 597 1301 q 444 1326 503 1326 q 254 1260 333 1326 q 161 1114 185 1200 q 186 1019 144 1053 q 303 987 228 985 q 456 1025 378 989 q 447 1008 453 1018 q 422 974 440 999 q 383 931 403 950 q 331 897 363 913 q 269 881 300 881 q 186 901 221 881 q 137 955 151 922 q 119 1029 122 988 q 129 1114 115 1071 q 238 1281 157 1214 q 453 1358 329 1358 q 567 1345 517 1358 q 655 1306 617 1332 q 713 1260 693 1279 q 761 1206 732 1240 q 810 1156 797 1167 q 881 1126 842 1126 q 914 1126 901 1126 q 935 1129 926 1126 q 947 1133 944 1132 q 956 1141 949 1135 q 967 1150 964 1147 l 1007 318 l 1526 1025 z "},"":{"ha":1264,"x_min":89,"x_max":1151,"o":"m 718 0 q 780 51 754 7 q 814 138 806 94 q 818 203 822 182 l 796 342 l 482 342 l 476 332 q 408 94 393 207 q 434 36 414 60 q 472 6 454 13 l 490 0 l 121 0 q 141 15 128 6 q 192 56 154 24 q 266 122 229 88 q 351 211 303 157 q 438 321 399 265 l 728 758 q 735 770 731 763 q 748 801 740 778 q 756 849 756 824 q 746 910 757 874 q 708 981 735 946 q 663 1031 685 1010 q 608 1076 642 1053 q 526 1111 574 1099 q 418 1124 478 1124 q 229 1057 307 1124 q 135 911 158 997 q 160 816 118 850 q 276 784 201 782 q 429 822 351 786 q 428 806 429 815 q 417 772 428 797 q 390 728 407 747 q 333 694 372 710 q 243 678 294 679 q 160 698 194 678 q 111 751 126 718 q 92 826 96 785 q 103 911 89 868 q 211 1078 131 1011 q 426 1156 303 1156 q 540 1143 490 1156 q 628 1103 590 1131 q 686 1057 667 1076 q 735 1003 706 1038 q 783 953 771 964 q 854 924 806 932 q 894 922 878 919 q 922 930 911 924 q 938 943 932 936 q 946 954 943 950 l 947 960 q 1043 272 1011 457 q 1069 158 1054 210 q 1097 78 1083 107 q 1124 31 1111 50 q 1143 7 1136 13 l 1151 0 l 718 0 m 501 371 l 790 371 l 733 721 l 501 371 z "},"ﬀ":{"ha":900,"x_min":-90,"x_max":1158,"o":"m 847 811 q 824 725 835 767 l 1007 725 l 999 696 l 815 696 l 546 -278 l 315 -278 q 586 696 543 542 l 411 696 l 140 -278 l -89 -278 q 181 696 139 542 l 93 696 l 100 725 l 189 725 q 215 794 199 758 q 262 872 232 829 q 328 949 292 915 q 419 1004 365 982 q 532 1026 472 1026 q 744 957 694 1026 q 938 1026 831 1026 q 1037 1017 993 1026 q 1102 995 1081 1008 q 1138 969 1124 982 q 1154 947 1151 957 l 1158 939 l 992 810 q 994 826 993 815 q 997 863 994 836 q 997 911 999 889 q 990 956 994 933 q 971 988 985 978 q 938 992 957 997 q 891 947 907 982 q 854 833 875 911 q 847 811 850 818 m 419 725 l 594 725 q 618 790 603 756 q 613 875 618 790 q 539 993 593 1001 q 532 992 536 992 q 487 947 503 982 q 449 833 471 911 q 443 811 444 818 q 433 776 442 806 q 419 725 425 746 z "},"ﬂ":{"ha":792,"x_min":-89,"x_max":854,"o":"m 846 833 l 632 57 q 692 74 674 57 l 697 51 q 683 37 692 46 q 641 13 674 28 q 571 -3 608 -3 l 488 -3 q 423 27 444 -3 q 414 99 401 57 q 631 833 608 774 q 697 1033 697 1011 q 681 1047 696 1047 q 555 1034 607 1047 q 477 1000 503 1021 q 438 954 451 979 q 424 904 424 929 q 428 858 425 879 q 438 824 432 836 l 444 811 l 142 -278 l -87 -278 q 142 574 57 246 q 183 696 158 636 l 94 696 l 101 725 l 196 725 q 403 983 272 894 q 699 1071 533 1071 q 788 1047 753 1071 q 835 987 824 1022 q 849 917 846 951 q 850 858 853 882 l 846 833 z "},"ﬆ":{"ha":1051,"x_min":-72,"x_max":1147,"o":"m 1139 700 l 1139 699 l 1040 699 l 864 60 q 925 76 906 60 l 929 54 q 915 40 925 49 q 873 15 906 31 q 804 0 840 0 l 719 0 q 656 30 678 0 q 646 101 635 60 l 790 624 q 774 700 803 669 l 699 700 l 706 728 l 838 728 q 911 740 878 728 q 964 771 944 753 q 997 807 983 789 q 1015 838 1010 825 l 1021 850 q 932 863 975 838 q 894 894 913 874 q 864 930 875 914 q 835 978 853 946 q 815 1010 825 992 q 799 1043 806 1029 q 783 1074 793 1057 q 765 1103 774 1092 q 741 1128 756 1114 q 710 1147 726 1142 q 671 1160 694 1153 q 619 1165 647 1167 q 554 1163 592 1164 q 395 1078 450 1150 q 340 915 340 1007 l 340 914 q 390 791 340 843 q 510 732 439 739 q 594 720 556 728 q 650 707 633 713 l 665 701 l 568 475 q 558 501 565 485 q 531 558 551 517 q 488 630 510 599 q 433 687 465 661 q 368 713 400 713 q 288 683 313 713 q 282 605 264 653 q 358 513 300 557 q 516 347 461 435 q 547 171 571 258 q 420 31 522 82 q 188 -19 318 -19 q 49 -4 114 -19 q -43 26 -15 11 l -72 42 l 56 275 q 58 249 57 265 q 69 191 60 233 q 92 115 78 149 q 133 53 106 82 q 194 19 160 24 q 274 29 236 14 q 333 74 311 44 q 360 139 354 103 q 347 215 367 175 q 281 288 326 256 q 110 433 154 374 q 86 564 67 492 q 186 690 108 642 q 378 739 264 739 q 378 739 378 739 q 381 739 379 739 q 310 915 308 801 q 334 1037 310 979 q 415 1139 358 1094 q 550 1193 471 1183 q 622 1197 592 1194 q 678 1191 651 1199 q 722 1176 704 1183 q 757 1155 740 1169 q 784 1128 774 1140 q 805 1097 794 1115 q 823 1063 815 1078 q 841 1028 831 1049 q 860 993 851 1008 q 889 949 879 964 q 915 917 899 935 q 947 889 931 899 q 960 883 953 886 q 974 880 967 881 q 986 879 982 879 q 1000 879 990 879 q 1013 879 1010 879 l 1090 882 l 1049 728 l 1146 728 l 1139 700 z "}}}
